<?xml version="1.0" encoding="UTF-8" standalone="no"?>
<svg
   xmlns:dc="http://purl.org/dc/elements/1.1/"
   xmlns:cc="http://creativecommons.org/ns#"
   xmlns:rdf="http://www.w3.org/1999/02/22-rdf-syntax-ns#"
   xmlns:svg="http://www.w3.org/2000/svg"
   xmlns="http://www.w3.org/2000/svg"
   xmlns:xlink="http://www.w3.org/1999/xlink"
   xmlns:sodipodi="http://sodipodi.sourceforge.net/DTD/sodipodi-0.dtd"
   xmlns:inkscape="http://www.inkscape.org/namespaces/inkscape"
   width="8"
   height="8"
   viewBox="0 0 8 8"
   version="1.1"
   id="svg3725"
   sodipodi:docname="cog.svg"
   inkscape:version="0.92.3 (2405546, 2018-03-11)">
  <metadata
     id="metadata3731">
    <rdf:RDF>
      <cc:Work
         rdf:about="">
        <dc:format>image/svg+xml</dc:format>
        <dc:type
           rdf:resource="http://purl.org/dc/dcmitype/StillImage" />
      </cc:Work>
    </rdf:RDF>
  </metadata>
  <defs
     id="defs3729">
    <linearGradient
       inkscape:collect="always"
       id="linearGradient6007">
      <stop
         style="stop-color:#ba6329;stop-opacity:1"
         offset="0"
         id="stop6003" />
      <stop
         style="stop-color:#f1cf78;stop-opacity:1"
         offset="1"
         id="stop6005" />
    </linearGradient>
    <linearGradient
       inkscape:collect="always"
       xlink:href="#linearGradient6007"
       id="linearGradient6009"
       x1="3.8890295"
       y1="1.238392"
       x2="4.1983838"
       y2="6.8067751"
       gradientUnits="userSpaceOnUse" />
  </defs>
  <sodipodi:namedview
     pagecolor="#ffffff"
     bordercolor="#666666"
     borderopacity="1"
     objecttolerance="10"
     gridtolerance="10"
     guidetolerance="10"
     inkscape:pageopacity="0"
     inkscape:pageshadow="2"
     inkscape:window-width="958"
     inkscape:window-height="1008"
     id="namedview3727"
     showgrid="false"
     inkscape:zoom="22.627754"
     inkscape:cx="-3.1814464"
     inkscape:cy="4.004717"
     inkscape:window-x="953"
     inkscape:window-y="0"
     inkscape:window-maximized="0"
     inkscape:current-layer="svg3725" />
  <path
     d="M3.5 0l-.5 1.19c-.1.03-.19.08-.28.13l-1.19-.5-.72.72.5 1.19c-.05.1-.09.18-.13.28l-1.19.5v1l1.19.5c.04.1.08.18.13.28l-.5 1.19.72.72 1.19-.5c.09.04.18.09.28.13l.5 1.19h1l.5-1.19c.09-.04.19-.08.28-.13l1.19.5.72-.72-.5-1.19c.04-.09.09-.19.13-.28l1.19-.5v-1l-1.19-.5c-.03-.09-.08-.19-.13-.28l.5-1.19-.72-.72-1.19.5c-.09-.04-.19-.09-.28-.13l-.5-1.19h-1zm.5 2.5c.83 0 1.5.67 1.5 1.5s-.67 1.5-1.5 1.5-1.5-.67-1.5-1.5.67-1.5 1.5-1.5z"
     id="path3723" />
  <g
     id="g6032">
    <path
       inkscape:connector-curvature="0"
       id="path3733"
       d="M 3.2538143,7.4218131 3.0047439,6.8285319 2.8624275,6.7618191 2.7201111,6.6951062 2.126565,6.9446039 1.5330189,7.1941015 1.1768868,6.838135 C 0.98101415,6.6423535 0.82075472,6.4787035 0.82075472,6.4744683 c 0,-0.00424 0.11037736,-0.2704685 0.24528298,-0.5916296 0.1349057,-0.3211612 0.2452831,-0.5877597 0.2452831,-0.5924412 0,-0.00468 -0.027594,-0.065895 -0.061321,-0.1360306 -0.033726,-0.070136 -0.061321,-0.131689 -0.061321,-0.1367857 0,-0.0051 -0.26851411,-0.1220337 -0.59669807,-0.25986 L -0.00471698,4.5071278 V 4.0100572 3.5129866 L 0.59198113,3.2622892 C 0.92016509,3.1244058 1.1886792,3.0076128 1.1886792,3.0027493 c 0,-0.00486 0.027594,-0.066226 0.061321,-0.1363615 0.033726,-0.070135 0.061321,-0.131585 0.061321,-0.1365547 0,-0.00497 -0.1103774,-0.2716566 -0.2452831,-0.5926376 C 0.93113208,1.8162144 0.82075472,1.5502169 0.82075472,1.5460899 c 0,-0.00413 0.16037349,-0.1678357 0.35638558,-0.3637968 l 0.3563855,-0.35629298 0.5930676,0.24953148 0.5930675,0.2495315 0.07649,-0.040855 c 0.04207,-0.02247 0.1062073,-0.052321 0.142528,-0.066334 L 3.004717,1.1923951 3.2537277,0.59902775 3.5027384,0.00566038 h 0.497372 0.4973719 l 0.1674203,0.3985849 c 0.092081,0.2192217 0.2040865,0.48632847 0.2489004,0.59357057 l 0.08148,0.19498565 0.1425983,0.066091 0.1425983,0.066091 0.5932159,-0.2492731 0.5932157,-0.24927323 0.356167,0.35607453 c 0.1958919,0.195841 0.3561671,0.3594586 0.3561671,0.3635946 0,0.00414 -0.1107406,0.271153 -0.2460901,0.5933709 L 6.687065,2.7253279 6.743715,2.8442678 c 0.031158,0.065417 0.059395,0.1298948 0.062749,0.1432844 0.00554,0.02212 0.060555,0.047209 0.6021758,0.2746261 L 8.004717,3.5124598 V 4.0099012 4.5073427 L 7.4098428,4.7573268 6.8149686,5.0073109 6.7517406,5.1456366 c -0.034775,0.076079 -0.063191,0.1416814 -0.063145,0.1457828 4.72e-5,0.0041 0.1104608,0.2700781 0.2453665,0.5910591 0.1349056,0.320981 0.245283,0.5872218 0.245283,0.591646 0,0.00442 -0.1602595,0.16817 -0.3561321,0.3638795 L 6.4669811,7.1938392 5.8739881,6.9444644 5.2809952,6.6950895 5.2277617,6.721777 C 5.1984837,6.736455 5.1341977,6.766199 5.0849057,6.787875 L 4.995283,6.8272858 4.7463002,7.4211901 4.4973174,8.0150943 H 4.0001011 3.5028849 Z M 4.1489567,5.4956306 C 4.7510341,5.4297126 5.2363137,5.0425741 5.4252645,4.4774383 5.4851697,4.2982671 5.503091,4.1677558 5.4971724,3.9537736 5.4903164,3.7059076 5.4572722,3.5665253 5.3535641,3.3480261 5.1066212,2.8277507 4.579808,2.4962264 4,2.4962264 c -0.579823,0 -1.1046382,0.3301835 -1.3539064,0.8517997 -0.1025865,0.2146716 -0.1364038,0.3576552 -0.143266,0.6057475 -0.00592,0.2139822 0.012003,0.3444935 0.071908,0.5236647 0.2227008,0.6660791 0.883946,1.0937665 1.5742211,1.0181923 z"
       style="stroke-width:0.00943396;fill:url(#linearGradient6009);stroke:none;stroke-opacity:1;fill-opacity:1" />
  </g>
</svg>
