<?xml version="1.0" encoding="utf-8"?>
<!-- Generator: Adobe Illustrator 15.1.0, SVG Export Plug-In . SVG Version: 6.00 Build 0)  -->
<!DOCTYPE svg PUBLIC "-//W3C//DTD SVG 1.1//EN" "http://www.w3.org/Graphics/SVG/1.1/DTD/svg11.dtd">
<svg version="1.1" id="Layer_1" xmlns="http://www.w3.org/2000/svg" xmlns:xlink="http://www.w3.org/1999/xlink" x="0px" y="0px"
	 width="1400px" height="980px" viewBox="0 0 1400 980" enable-background="new 0 0 1400 980" xml:space="preserve">
<g>
	<g>
		<polygon points="218.275,537.697 218.275,540.531 327.206,540.531 436.136,540.531 436.136,537.697 327.206,537.697 		"/>
		<polygon points="218.275,571.849 218.275,574.683 327.206,574.683 436.136,574.683 436.136,571.849 327.206,571.849 		"/>
		<path d="M418.967,464.928l7.979,7.583c0,14.737-23.083,21.541-29.068,13.604c-5.984-7.936,5.416-24.564,5.416-24.564
			l-5.985-21.161l-16.529,7.936c0,0,1.14,17.76-3.989,25.319c-2.397,3.532-7.927,5.46-11.804,2.142
			c-9.859-8.436-6.309-17.696-6.309-17.696l8.422-21.48l-39.896-43.079L287.31,436.61l8.421,21.48c0,0,3.55,9.26-6.307,17.696
			c-3.878,3.319-9.408,1.39-11.805-2.142c-5.129-7.559-3.989-25.319-3.989-25.319l-16.529-7.936l-5.985,21.161
			c0,0,11.4,16.628,5.416,24.564c-5.985,7.937-29.067,1.133-29.067-13.604l7.979-7.583l-24.506-32.095l7.151,59.203h0.001
			c4.464-0.599,8.515,4.598,9.05,11.603c0.489,6.422-2.145,12.121-6.021,13.498l1.502,17.912h104.585h104.585l1.501-17.912
			c-3.876-1.377-6.51-7.076-6.021-13.498c0.536-7.005,4.587-12.201,9.051-11.603c0,0,0.001,0,0.002,0l7.149-59.203L418.967,464.928z
			 M276.284,516.069c-3.584,0.957-7.423-4.401-8.572-11.97c-1.151-7.572,0.821-14.484,4.406-15.44
			c3.584-0.959,7.423,4.4,8.573,11.973C281.84,508.195,279.869,515.113,276.284,516.069z M327.206,507.655
			c-4.486,0-8.122-5.712-8.122-12.753c0-7.045,3.636-12.755,8.122-12.755s8.122,5.71,8.122,12.755
			C335.327,501.943,331.691,507.655,327.206,507.655z M327.206,460.198l-8.55-20.565l8.55-15.114l8.55,15.114L327.206,460.198z
			 M386.699,504.1c-1.149,7.568-4.986,12.927-8.572,11.97c-3.585-0.956-5.557-7.874-4.407-15.438
			c1.151-7.572,4.988-12.932,8.573-11.973C385.879,489.616,387.851,496.527,386.699,504.1z"/>
		<polygon points="431.969,568.873 431.969,543.508 327.206,543.508 222.443,543.508 222.443,568.873 327.206,568.873 		"/>
	</g>
	<g>
		<polygon points="660.329,417.657 660.329,435.676 640.696,435.676 640.696,417.657 621.459,411.105 602.223,417.657 
			602.223,435.676 582.59,435.676 582.59,417.657 567.715,417.657 567.715,435.676 567.715,438.039 567.715,458.422 
			675.201,458.422 675.201,438.039 675.201,435.676 675.201,417.657 		"/>
		<rect x="563.433" y="462.018" width="116.05" height="12.464"/>
		<path d="M668.136,478.193h-46.677h-46.677L560.65,579.399h60.809h60.809L668.136,478.193z M642.014,540.638h-20.555h-20.554
			c0,0,0-15.676,0-22.182c0-6.51,20.554-12.723,20.554-12.723s20.555,6.213,20.555,12.723
			C642.014,524.962,642.014,540.638,642.014,540.638z"/>
		<rect x="540.739" y="583.894" width="161.44" height="14.454"/>
	</g>
	<g>
		<path d="M865.828,470.392c-33.751-22.226-79.132-12.882-101.358,20.871c-22.224,33.752-12.88,79.129,20.871,101.355
			c33.755,22.226,79.132,12.882,101.358-20.871C908.925,537.994,899.581,492.617,865.828,470.392z M820.783,489.509
			c-5.075-3.343-6.479-10.165-3.138-15.242c3.341-5.075,10.168-6.481,15.242-3.14c5.077,3.343,6.481,10.167,3.14,15.242
			C832.685,491.444,825.86,492.852,820.783,489.509z"/>
		<path d="M890.773,487.807l10.749-16.323l-50.8-33.452l-10.747,16.323c9.975,1.857,19.755,5.686,28.762,11.618
			C877.745,471.907,885.129,479.377,890.773,487.807z"/>
		<path d="M875.139,451.45l4.517,2.752l0.229-0.376c2.265-3.731,6.054-9.975,11.737-10.889c3.915-0.633,8.498,1.269,13.635,5.648
			c9.104,7.78,20.475,3.662,25.215,0.409l-2.982-4.364c-0.425,0.29-10.528,6.939-18.801-0.069
			c-6.361-5.431-12.39-7.732-17.905-6.846c-8.098,1.302-12.683,8.854-15.42,13.365L875.139,451.45z"/>
		<path d="M929.646,443.096c0.608,0.408,1.428,0.237,1.828-0.376l4.183-6.348c0.403-0.609,0.235-1.431-0.376-1.832
			c-0.611-0.405-1.431-0.234-1.831,0.379l-4.183,6.348C928.865,441.876,929.034,442.697,929.646,443.096z"/>
		<path d="M920.54,454.519l-4.183,6.353c-0.4,0.609-0.232,1.426,0.377,1.829c0.613,0.403,1.431,0.234,1.833-0.376l4.181-6.35
			c0.403-0.609,0.234-1.431-0.377-1.831C921.763,453.739,920.941,453.91,920.54,454.519z"/>
		<path d="M931.529,452.258c-0.4,0.609-0.232,1.428,0.377,1.831l6.35,4.18c0.611,0.403,1.431,0.232,1.831-0.376
			c0.403-0.613,0.235-1.433-0.376-1.831l-6.349-4.183C932.752,451.477,931.93,451.647,931.529,452.258z"/>
		<path d="M912.304,441.181l6.351,4.178c0.61,0.405,1.43,0.234,1.833-0.376c0.4-0.609,0.232-1.428-0.379-1.831l-6.348-4.178
			c-0.613-0.405-1.431-0.239-1.833,0.376C911.524,439.958,911.694,440.777,912.304,441.181z"/>
		<path d="M934.045,448.317l7.446-1.535c0.715-0.148,1.176-0.848,1.029-1.561c-0.148-0.718-0.846-1.178-1.563-1.03l-7.446,1.534
			c-0.715,0.146-1.176,0.844-1.029,1.563C932.632,448.005,933.329,448.463,934.045,448.317z"/>
		<path d="M923.113,441.116c0.146,0.718,0.846,1.178,1.561,1.03c0.716-0.146,1.176-0.846,1.03-1.561l-1.534-7.448
			c-0.148-0.715-0.847-1.176-1.562-1.027c-0.715,0.146-1.178,0.846-1.029,1.561L923.113,441.116z"/>
		<path d="M927.845,464.106c0.148,0.713,0.849,1.176,1.563,1.027c0.715-0.146,1.176-0.848,1.027-1.561l-1.532-7.446
			c-0.148-0.718-0.846-1.178-1.563-1.034c-0.715,0.148-1.176,0.848-1.029,1.563L927.845,464.106z"/>
	</g>
	<g>
		<path d="M1188.546,453.779c-3.7-26.812-72.37-47.22-93.327-52.837l-2.156-0.576l-2.155,0.576
			c-20.959,5.617-89.629,26.025-93.327,52.837c-3.467,25.126,10.051,113.424,53.672,136.146
			c22.241,11.584,38.746,16.544,39.438,16.752l2.372,0.704l2.373-0.704c0.691-0.208,17.195-5.168,39.437-16.752
			C1178.496,567.203,1192.012,478.906,1188.546,453.779z M1127.178,575.148c-16.013,8.343-28.979,13.055-34.115,14.79
			c-5.138-1.735-18.104-6.447-34.116-14.79c-34.092-17.754-47.935-96.827-44.864-119.091c1.429-10.358,42.309-28.335,78.98-38.438
			c36.673,10.103,77.553,28.08,78.981,38.438C1175.115,478.321,1161.27,557.395,1127.178,575.148z"/>
		<path d="M1099.359,426.864v29.537c14.066,2.909,24.639,15.366,24.639,30.292c0,14.927-10.572,27.379-24.639,30.289v63.033
			c6.25-2.453,14.779-6.12,24.521-11.194c29.936-15.593,43.531-90.446,41.171-111.153
			C1160.709,450.155,1131.082,436.429,1099.359,426.864z"/>
		<path d="M1062.128,486.693c0-14.926,10.572-27.383,24.64-30.292v-29.533c-31.729,9.581-61.361,23.304-65.695,30.799
			c-2.357,20.707,11.235,95.56,41.173,111.153c9.742,5.074,18.271,8.741,24.522,11.194v-63.033
			C1072.7,514.072,1062.128,501.62,1062.128,486.693z"/>
		<circle cx="1093.063" cy="486.693" r="21.417"/>
	</g>
	<g>
		<polygon points="452.883,630.472 452.883,674.573 487.497,664.525 		"/>
		<polygon points="452.883,826.346 464.077,808.434 452.883,806.006 		"/>
		<polygon points="490.526,673.368 452.883,684.298 452.883,796.454 467.815,799.691 		"/>
		<polygon points="446.957,674.573 446.957,630.472 412.343,664.525 		"/>
		<polygon points="446.957,826.346 446.957,806.006 435.763,808.434 		"/>
		<polygon points="432.024,799.691 446.957,796.454 446.957,684.298 409.313,673.368 		"/>
		<polygon points="551.712,718.236 540.951,681.605 524.09,711.908 		"/>
		<polygon points="475.572,789.524 516.304,716.323 494.619,694.426 490.514,706.417 		"/>
		<polygon points="536.881,679.343 500.08,689.506 520.02,709.642 		"/>
		<polygon points="477.5,795.64 486.523,803.575 550.414,725.468 520.374,718.586 		"/>
		<polygon points="473.027,803.673 472.902,804.372 473.423,804.487 472.663,805.705 472.488,806.675 472.108,806.591 
			466.143,816.139 480.61,808.149 473.846,802.202 		"/>
		<polygon points="422.981,782.368 416.352,745.493 407.854,726.558 395.278,741.844 		"/>
		<polygon points="404.075,723.736 379.936,719.401 392.506,737.792 		"/>
		<polygon points="423.521,798.479 426.079,799.599 425.501,796.388 		"/>
		<polygon points="424.275,789.568 392.806,743.531 373.997,749.704 419.469,795.9 424.464,790.622 		"/>
		<polygon points="377.465,721.089 372.74,745.156 390.036,739.479 		"/>
	</g>
	<g>
		<polygon points="963.646,751.13 1006.904,708.964 920.388,736.978 		"/>
		<polygon points="1004.679,702.325 944.961,693.646 918.253,730.309 		"/>
		<polygon points="912.576,635.387 912.576,726.208 939.297,689.527 		"/>
		<polygon points="905.575,726.208 905.575,635.387 878.854,689.527 		"/>
		<polygon points="873.19,693.646 813.472,702.325 899.897,730.309 		"/>
		<polygon points="905.575,793.319 905.575,747.747 852.111,821.431 		"/>
		<polygon points="912.576,793.319 966.039,821.431 912.576,747.747 		"/>
		<polygon points="897.764,736.978 811.247,708.964 854.505,751.13 		"/>
		<polygon points="856.675,757.786 846.47,817.285 899.897,743.646 		"/>
		<polygon points="918.251,743.646 971.682,817.285 961.476,757.786 		"/>
	</g>
	<path d="M763.491,698.708c-0.07-25.353-19.582-45.852-43.586-45.789c-16.345,0.044-30.542,9.627-37.924,23.74
		c-7.456-14.073-21.704-23.577-38.053-23.532c-24.002,0.066-43.404,20.671-43.335,46.023c0,0-4.115,59.796,81.732,104.748
		C767.929,758.485,763.491,698.708,763.491,698.708z M645.631,667.23c-3.412,0.106-6.72,0.784-9.85,2.051
		c-1.559,0.646-3.097,1.368-4.563,2.254l-1.09,0.664c-0.414,0.262-0.636,0.43-0.979,0.669c-0.661,0.487-1.312,0.996-1.938,1.559
		c-5.069,4.45-8.934,10.535-11.791,17.103c-2.839,6.625-4.587,13.83-6.008,21.376c-1.495-7.533-1.268-15.509,0.844-23.165
		c2.066-7.639,6.063-15.043,12.363-20.597c0.791-0.686,1.631-1.333,2.5-1.948c0.432-0.297,0.984-0.673,1.374-0.903l0.604-0.367
		l0.741-0.412c1.814-0.97,3.722-1.82,5.709-2.467c3.966-1.297,8.264-1.793,12.389-1.253c8.29,0.996,15.587,5.598,20.077,11.828
		C659.568,669.538,652.462,667.116,645.631,667.23z M723.344,665.03c-4.085,0.5-7.962,1.438-11.713,2.816
		c-3.748,1.382-7.373,3.201-10.937,5.371c-3.577,2.175-7.078,4.632-10.757,7.404c1.328-4.477,4.056-8.383,7.348-11.704
		c3.328-3.299,7.406-5.969,11.921-7.639c9.033-3.414,19.677-2.312,27.119,3.188C731.693,664.49,727.438,664.512,723.344,665.03z"/>
	<g>
		<path d="M583.48,326.232c5.29,5.292,13.866,5.292,19.155,0c5.29-5.288,5.29-13.865,0-19.153c-5.29-5.29-13.865-5.287-19.154-0.002
			C578.192,312.367,578.19,320.944,583.48,326.232z M598.006,311.707c2.733,2.732,2.732,7.165,0,9.897
			c-2.733,2.732-7.164,2.732-9.896,0c-2.733-2.732-2.733-7.165,0-9.897C590.841,308.975,595.273,308.975,598.006,311.707z"/>
		<path d="M569.194,348.659c4.313-3.901,11.922-9.423,17.618-14.835c-2.437-0.883-4.729-2.283-6.683-4.238
			c-1.806-1.805-3.15-3.895-4.042-6.122c-5.274,4.977-20.471,16.712-24.98,20.789c-17.403,15.745-7.413,35.635-3.541,38.646
			c3.382,2.631,13.354-10.185,13.381-13.909C561.001,361.406,560.211,356.788,569.194,348.659z"/>
		<path d="M595.064,298.49c0.017-2.814,0.344-5.329,1.33-6.43c0,0-11.698,1.393-17.065,6.242
			c-5.365,4.851-7.682,13.865-7.682,13.865s1.32,0.66,3.341,1.827c0.551-3.757,2.251-7.377,5.142-10.267
			C584.21,299.644,589.74,297.906,595.064,298.49z"/>
		<path d="M612.619,319.458c0,0-0.593,0.611-1.691,1.025c-0.712,3.333-2.349,6.512-4.94,9.1c-2.771,2.772-6.208,4.453-9.793,5.075
			c0.234,0.826,0.388,1.661,0.441,2.498c0.804,12.937-11.723,18.765-11.306,18.862c0.417,0.1,22.19-3.985,28.593-21.208
			C620.325,317.588,612.619,319.458,612.619,319.458z"/>
		<path d="M605.987,303.727c2.913,2.912,4.611,6.567,5.147,10.354c22.406-11.702,104.763-56.373,117.643-86.959
			c7.619-18.094,3.922-35.017-1.419-47.151c-12.854,21.788-33.33,52.204-57.045,71.562c-44.733,36.514-55.868,24.58-55.868,24.58
			s-4.644,14.314-10.561,25.835C604.616,302.485,605.325,303.065,605.987,303.727z"/>
		<path d="M732.524,228.693c-12.327,29.278-81.942,68.98-111.772,84.927c1.936,0.766,3.816,2.258,5.507,4.793
			c0,0,90.983-40.225,115.564-82.843c21.898-37.966-0.186-81.916-0.186-81.916s-4.309,9.032-11.802,22.06
			C736.127,188.754,741.241,207.988,732.524,228.693z"/>
	</g>
	<g>
		
			<rect x="946.709" y="159.753" transform="matrix(0.7071 0.7071 -0.7071 0.7071 422.5192 -625.556)" width="39.345" height="75.003"/>
		<g>
			<path d="M825.09,349.802c-7.161-7.161-9.525-14.915-10.095-20.902c-2.172-22.792,18.829-45.473,36.833-60.489
				c29.544-24.642,40.351-32.144,55.022-34.366c3.285-0.636,12.384-7.954,18.694-15.048l18.001,18.451
				c-4.399,4.947-18.563,19.963-32.83,22.124c-7.317,1.109-14.467,5.41-42.351,28.669c-21.406,17.853-29.78,35.473-26.047,40.792
				c12.983,18.493-6.295,28.842-6.295,28.842C831.506,355.373,827.924,352.634,825.09,349.802z"/>
		</g>
		<path d="M969.29,268.889c-7.932,13.073-22.226,23.851-34.267,31.253c17.047,4.978,52.376,9.864,92.45-16.095
			c23.641-15.313,34.57-35.677,32.479-60.522c-0.447-5.334-1.479-10.29-2.717-14.678l-21.185,22.124l-30.547-31.981l-36.95,36.952
			C968.555,235.942,979.464,252.115,969.29,268.889z"/>
		<path d="M1071.908,245.397l11.438,2.861c8.274-31.793-9.592-56.654-9.592-56.654l-12.191,12.731
			c6.634,21.081,10.067,57.704-31.081,84.355c-45.901,29.734-86.115,20.729-101.834,15.198c-8.334,4.669-14.432,7.258-14.432,7.258
			s71.29,33.038,131.378-12.074c20.49-15.382,31.233-31.182,36.235-45.773L1071.908,245.397z"/>
	</g>
	<g>
		
			<rect x="424.289" y="213.525" transform="matrix(-0.7071 -0.7071 0.7071 -0.7071 650.669 707.7071)" width="95.238" height="11.137"/>
		
			<rect x="399.49" y="219.209" transform="matrix(-0.7071 -0.7071 0.7071 -0.7071 590.8038 732.5024)" width="95.239" height="49.365"/>
		
			<rect x="458.592" y="274.011" transform="matrix(0.7071 -0.7071 0.7071 0.7071 -54.7004 435.4105)" width="79.282" height="19.445"/>
		
			<rect x="397.544" y="153.126" transform="matrix(-0.7071 -0.7071 0.7071 -0.7071 558.9565 617.0499)" width="19.446" height="79.282"/>
		
			<rect x="353.218" y="280.025" transform="matrix(0.7071 -0.7071 0.7071 0.7071 -93.5085 366.0444)" width="83.77" height="31.746"/>
		
			<rect x="467.261" y="203.383" transform="matrix(0.7071 0.7071 -0.7071 0.7071 288.4687 -280.7368)" width="31.747" height="8.965"/>
		
			<rect x="334.945" y="327.634" transform="matrix(-0.7071 -0.7071 0.7071 -0.7071 372.1877 823.0585)" width="43.215" height="13.627"/>
	</g>
</g>
</svg>
