<?xml version="1.0" standalone="no"?>
<!DOCTYPE svg PUBLIC "-//W3C//DTD SVG 20010904//EN"
 "http://www.w3.org/TR/2001/REC-SVG-20010904/DTD/svg10.dtd">
<svg version="1.0" xmlns="http://www.w3.org/2000/svg"
 width="564.000000pt" height="576.000000pt" viewBox="0 0 564.000000 576.000000"
 preserveAspectRatio="xMidYMid meet">
<metadata>
Created by potrace 1.15, written by Peter Selinger 2001-2017
</metadata>
<g transform="translate(0.000000,576.000000) scale(0.100000,-0.100000)"
fill="#000000" stroke="none">
<path d="M2520 5706 c-139 -15 -360 -57 -460 -88 -105 -32 -273 -88 -295 -97
-97 -44 -243 -113 -255 -121 -8 -5 -28 -16 -45 -25 -31 -15 -52 -28 -175 -105
-39 -25 -93 -58 -119 -75 -113 -70 -426 -377 -562 -551 -115 -145 -189 -261
-270 -419 -170 -333 -243 -551 -299 -895 -23 -141 -40 -520 -23 -520 6 0 10
59 11 153 1 84 6 196 12 248 22 196 68 420 88 427 6 2 8 11 5 20 -10 39 96
321 191 510 162 321 361 580 628 818 64 57 119 104 122 104 4 0 46 30 94 68
167 128 328 224 512 301 41 18 84 36 95 41 212 95 483 163 765 191 218 22 604
10 705 -21 17 -5 71 -17 120 -26 197 -36 509 -141 690 -231 154 -78 367 -211
490 -307 115 -90 296 -264 403 -388 215 -250 412 -601 511 -911 99 -307 137
-540 140 -862 5 -515 -115 -997 -356 -1429 -122 -219 -249 -383 -458 -591
-228 -229 -439 -382 -725 -525 -147 -74 -195 -91 -209 -77 -9 9 -11 8 -6 -4 4
-11 0 -18 -12 -22 -73 -22 -180 -63 -182 -69 0 -5 -1 -11 -1 -15 0 -5 -4 -2
-9 6 -7 11 -15 11 -39 3 -26 -9 -31 -8 -35 8 -7 26 4 33 20 12 7 -9 13 -12 12
-7 -1 6 -1 19 0 30 2 18 4 17 13 -5 l11 -25 6 30 c6 26 8 27 14 11 7 -19 8
-19 23 2 18 27 31 28 37 5 4 -16 5 -16 6 -2 1 18 27 33 42 23 5 -3 9 1 9 8 0
9 3 9 10 -2 8 -13 10 -13 10 1 0 14 22 26 60 33 3 1 11 5 18 9 7 5 12 3 12 -5
1 -7 7 -2 15 12 13 23 14 23 16 5 1 -14 4 -10 9 10 l7 30 11 -25 11 -25 2 30
c1 18 3 23 6 12 2 -9 8 -15 13 -12 4 3 6 14 3 25 -3 11 0 20 6 20 6 0 11 -6
11 -13 0 -8 7 -14 15 -14 8 0 15 6 15 14 0 17 20 17 20 1 0 -7 5 -5 11 5 6 9
14 15 20 12 5 -4 9 1 9 10 0 9 5 13 10 10 6 -3 10 -2 10 4 0 6 7 7 17 4 10 -4
14 -2 9 5 -3 6 -2 13 4 17 5 3 10 1 10 -5 0 -8 6 -8 20 0 11 6 20 17 20 25 0
8 5 15 11 15 5 0 7 -4 4 -10 -3 -5 -1 -10 4 -10 6 0 11 12 12 28 l1 27 8 -25
c4 -14 8 -19 9 -11 1 7 7 11 16 7 26 -10 45 4 41 30 -3 13 0 24 5 24 5 0 9 -9
9 -21 0 -12 4 -17 11 -13 6 3 8 17 5 30 -4 14 -2 24 4 24 6 0 8 -4 5 -10 -3
-5 -1 -10 4 -10 6 0 11 10 11 22 0 21 0 21 15 2 13 -18 14 -16 16 26 1 30 3
36 6 18 6 -41 23 -34 24 10 1 37 1 37 9 7 6 -25 8 -27 14 -13 5 10 12 16 16
13 4 -3 19 7 34 22 14 14 26 22 26 18 0 -5 9 2 20 15 11 12 17 27 14 31 -3 5
-1 9 5 9 5 0 12 -8 14 -18 3 -12 5 -10 7 8 1 14 2 28 1 33 -2 15 18 6 22 -11
4 -15 5 -15 6 1 0 10 6 17 13 15 16 -6 49 29 47 50 -3 32 1 52 10 52 5 0 8
-11 5 -25 -2 -14 0 -25 6 -25 5 0 10 9 10 21 0 11 5 17 10 14 6 -3 10 3 10 15
0 12 5 18 10 15 6 -3 10 -1 10 5 0 7 7 10 14 7 10 -4 13 -1 10 8 -4 9 3 16 20
21 18 4 26 13 26 28 0 14 3 17 8 9 11 -17 42 19 43 50 1 17 2 18 6 5 4 -16 6
-16 19 -4 8 8 14 19 14 25 0 6 5 11 10 11 6 0 10 9 10 19 0 10 7 21 15 25 9 3
14 17 14 33 l-2 28 -4 -28 c-2 -15 -11 -27 -18 -27 -11 0 -12 6 -3 31 10 30
48 54 59 38 6 -10 13 -3 93 84 42 45 53 65 53 90 0 37 11 67 25 67 5 0 6 -10
3 -22 -5 -18 -4 -20 4 -8 6 8 11 27 11 43 0 28 14 37 23 15 4 -10 6 -10 6 0 1
7 12 25 26 40 14 15 21 28 16 30 -14 5 -2 33 28 65 14 16 27 38 27 50 3 31 22
115 23 99 1 -17 21 -5 21 13 0 8 -6 12 -14 9 -17 -6 -29 23 -14 32 7 4 8 3 4
-4 -4 -7 -1 -12 10 -12 11 0 15 6 11 20 -6 22 8 37 18 20 13 -21 21 -9 17 25
-3 23 0 35 8 35 7 0 10 7 7 15 -4 8 -2 17 3 20 5 3 10 -3 13 -12 2 -10 4 5 5
34 0 28 3 57 7 62 3 6 1 11 -6 11 -8 0 -7 5 3 18 9 9 13 23 11 30 -3 6 1 12 7
12 8 0 11 -10 8 -25 -3 -14 -1 -25 3 -25 5 0 9 30 9 66 0 41 4 63 10 59 6 -3
8 -18 5 -33 -4 -23 -4 -24 4 -7 5 11 10 34 10 50 1 19 9 35 21 43 12 7 18 17
14 23 -3 6 -12 3 -20 -8 -14 -17 -15 -16 -8 7 5 20 4 23 -7 13 -7 -7 -17 -13
-22 -13 -4 0 -5 6 0 13 4 6 8 18 9 25 3 20 11 25 24 17 6 -4 9 -14 6 -22 -5
-11 -2 -13 10 -9 8 3 18 6 20 6 2 0 4 7 4 15 0 8 6 15 13 15 8 0 7 4 -3 10
-13 9 -12 13 5 27 19 15 19 15 1 9 -19 -7 -19 -6 -2 13 23 25 26 108 5 122
-11 7 -11 9 -1 9 8 0 12 9 10 23 -1 12 5 33 15 47 13 18 14 26 4 32 -9 6 -9 8
1 8 6 0 12 9 12 21 0 11 -4 17 -10 14 -5 -3 -10 -1 -10 4 0 6 5 11 10 11 6 0
10 5 10 11 0 5 -4 7 -10 4 -5 -3 -10 -2 -10 4 0 5 6 12 13 14 10 4 10 6 0 6
-7 1 -13 8 -13 16 0 8 -5 15 -11 15 -5 0 -7 5 -4 10 4 6 11 8 16 5 5 -4 9 12
9 34 0 22 5 42 13 44 8 4 8 8 2 14 -15 12 -13 125 3 130 6 3 12 11 12 19 0 10
-5 12 -12 8 -9 -5 -9 -2 1 9 9 12 10 17 2 17 -7 0 -9 5 -6 11 4 5 -1 19 -11
30 -13 15 -14 19 -3 19 11 0 11 2 1 9 -9 5 -11 17 -6 34 4 19 2 27 -7 27 -17
0 -22 52 -6 62 8 5 6 12 -8 22 -11 9 -14 16 -7 16 6 0 12 12 12 27 0 21 -3 24
-12 15 -7 -7 -17 -12 -22 -12 -6 1 0 10 13 20 13 11 18 20 12 20 -7 0 -9 5 -6
10 3 6 1 10 -4 10 -6 0 -11 5 -11 11 0 5 5 7 10 4 6 -3 10 -1 10 4 0 6 -4 11
-10 11 -5 0 -12 22 -16 50 -4 29 -11 47 -16 43 -7 -3 -8 10 -4 38 13 101 11
130 -10 122 -14 -5 -15 -3 -7 12 8 13 7 28 -3 50 -7 18 -10 35 -7 39 3 3 -2
15 -11 25 -10 11 -15 25 -11 30 12 20 14 51 3 51 -7 0 -6 6 2 15 8 9 9 15 2
15 -18 0 -24 -18 -12 -40 8 -16 8 -18 -4 -14 -10 4 -13 17 -11 39 2 20 -1 33
-7 32 -6 -1 -13 4 -15 11 -3 6 0 12 6 12 6 0 11 5 11 11 0 5 -4 7 -10 4 -5 -3
-10 -2 -10 3 0 5 -9 20 -21 33 -12 14 -19 33 -16 45 3 17 0 21 -11 16 -9 -3
-13 -1 -9 5 3 5 2 23 -3 39 -6 21 -9 24 -10 9 -1 -18 -2 -17 -11 4 -7 17 -6
27 2 32 15 9 1 32 -16 26 -8 -4 -11 3 -9 21 5 39 -5 62 -22 55 -7 -3 -14 -9
-14 -15 0 -5 5 -6 10 -3 6 3 10 -1 10 -9 0 -20 -7 -20 -25 -2 -12 12 -11 18 8
42 18 24 19 27 4 21 -10 -4 -16 -3 -12 2 8 15 -6 43 -20 37 -7 -2 -12 1 -12 7
0 7 -1 21 -2 32 -1 17 -3 17 -11 5 -8 -13 -11 -13 -22 -1 -10 10 -10 12 0 7
19 -11 14 8 -9 33 -18 19 -19 25 -8 32 11 7 11 9 1 9 -8 0 -10 5 -6 12 5 8 2
9 -10 5 -14 -5 -17 -3 -12 8 3 8 1 15 -4 15 -5 0 -7 9 -5 19 2 11 -3 22 -11
25 -9 3 -13 10 -10 14 3 4 -6 16 -19 26 -13 9 -29 31 -35 47 -7 16 -16 26 -21
23 -5 -3 -9 4 -9 14 0 20 -25 37 -49 33 -7 -1 -10 2 -6 8 3 6 2 11 -4 11 -5 0
-11 10 -13 21 -2 12 -13 28 -26 37 -21 14 -22 13 -16 -4 3 -11 -3 -6 -14 9
-14 20 -21 25 -25 15 -4 -8 -6 -6 -6 6 -1 13 -6 17 -21 13 -11 -3 -20 -1 -20
4 0 5 5 9 11 9 5 0 7 5 4 10 -4 6 -10 8 -15 5 -5 -3 -17 8 -26 25 -11 17 -27
30 -39 31 -19 0 -19 1 -1 8 12 5 16 10 9 14 -6 4 -18 4 -27 1 -9 -3 -16 -1
-16 5 0 6 -9 11 -20 11 -11 0 -20 5 -20 11 0 5 5 7 11 3 7 -4 10 -1 7 7 -3 8
-11 13 -17 11 -6 -1 -11 2 -11 8 0 15 -16 12 -34 -6 -9 -8 -16 -11 -16 -5 0 5
7 16 15 25 20 20 19 25 -5 19 -11 -3 -20 -11 -20 -19 0 -7 -10 -18 -22 -24
-21 -10 -21 -10 -5 3 11 9 15 21 11 32 -5 13 -9 14 -15 4 -5 -9 -10 -5 -14 14
-6 21 -10 25 -20 17 -16 -13 -30 4 -19 22 5 7 2 9 -8 6 -8 -4 -15 -1 -15 7 0
8 7 11 15 7 10 -3 13 -1 8 6 -4 7 -2 12 6 12 10 0 9 3 -2 10 -9 6 -17 5 -22
-3 -5 -8 -8 -6 -8 6 0 10 -4 15 -10 12 -5 -3 -10 -2 -10 4 0 5 -11 8 -25 6
-14 -1 -25 2 -25 7 0 5 -4 6 -10 3 -5 -3 -10 1 -10 10 0 9 5 13 10 10 6 -3 10
-2 10 4 0 5 -6 11 -12 14 -7 2 -10 8 -6 12 11 11 28 -4 28 -26 0 -27 15 -24
18 4 1 17 -6 26 -28 34 -26 10 -30 9 -31 -5 -1 -10 -5 -3 -9 13 -4 17 -8 22
-9 13 0 -10 -6 -18 -12 -18 -5 0 -8 4 -5 8 2 4 1 14 -5 22 -7 12 -9 12 -9 -3
0 -10 -4 -16 -9 -12 -5 3 -12 -3 -15 -12 -3 -10 -4 -3 -2 16 3 34 -14 59 -66
95 -29 21 -39 20 -31 -1 3 -10 3 -15 -2 -11 -4 4 -8 18 -9 30 -1 17 -7 23 -24
22 -16 0 -22 5 -23 20 0 20 -1 20 -8 1 -8 -19 -8 -19 -19 0 -9 16 -13 18 -23
8 -19 -19 -28 -16 -22 8 5 18 3 20 -16 14 -18 -5 -21 -2 -21 20 0 21 -4 26
-16 21 -9 -3 -21 -3 -27 1 -22 14 -37 11 -37 -5 0 -15 -2 -15 -10 -2 -7 11 -5
18 6 26 12 9 12 13 2 16 -7 3 -19 -2 -27 -9 -8 -8 -17 -11 -20 -6 -3 4 -12 8
-18 9 -30 2 -33 5 -32 27 1 16 2 18 6 5 2 -10 9 -18 14 -18 12 0 11 4 -2 33
-8 19 -16 22 -40 19 -16 -2 -29 -8 -29 -13 0 -14 -93 -11 -115 4 -11 7 -27 13
-35 12 -15 0 -36 30 -42 61 -3 16 -5 16 -18 2 -18 -18 -40 -13 -40 10 0 10 -3
13 -8 7 -4 -6 -13 -10 -19 -9 -7 1 -17 2 -22 3 -5 0 -12 9 -14 19 -4 15 -5 15
-6 -2 -1 -15 -6 -17 -23 -10 -13 4 -58 9 -100 10 -43 2 -88 9 -100 15 -50 27
-191 13 -215 -21 -8 -11 -21 -20 -29 -20 -9 0 -12 -5 -8 -11 4 -7 0 -9 -12 -6
-11 3 -37 8 -59 12 -72 11 -77 14 -71 43 6 25 5 26 -9 8 -8 -10 -12 -23 -9
-27 6 -10 4 -10 -83 -14 -50 -2 -63 0 -66 14 -4 14 -5 14 -6 -1 0 -10 -9 -18
-18 -19 -19 -1 -34 -4 -70 -14 -16 -5 -23 -2 -27 13 -8 23 -78 46 -122 39 -24
-3 -22 -4 11 -6 45 -1 98 -30 115 -60 8 -16 7 -26 -5 -44 -8 -13 -12 -26 -9
-30 4 -3 -1 -14 -10 -23 -17 -17 -18 -36 -1 -35 12 0 29 -28 22 -36 -3 -2 -15
1 -28 7 -20 11 -21 10 -16 -10 4 -17 2 -21 -11 -17 -9 3 -39 13 -66 21 -42 14
-47 14 -36 1 7 -8 21 -15 32 -15 11 0 29 -5 40 -11 11 -6 47 -11 79 -10 32 0
73 -5 91 -12 30 -12 81 -13 388 -8 58 2 180 66 180 95 0 7 -11 18 -25 24 -36
17 -50 15 -35 -4 11 -13 10 -16 -8 -21 -12 -3 -25 -16 -28 -29 -6 -22 -31 -44
-51 -44 -4 0 -8 24 -8 53 -1 28 -9 67 -18 86 -24 48 -22 87 6 105 35 23 147
31 183 13 16 -8 65 -17 109 -21 145 -11 177 -19 238 -63 49 -35 69 -43 125
-49 48 -5 61 -9 47 -15 -18 -7 -17 -8 6 -8 15 -1 48 -13 74 -28 27 -15 45 -21
41 -15 -13 22 8 12 39 -17 44 -42 130 -99 160 -107 14 -3 40 -23 58 -43 17
-21 49 -47 70 -60 20 -12 37 -29 37 -37 0 -8 7 -14 15 -14 8 0 32 -24 54 -52
60 -81 59 -101 -10 -148 -29 -19 -68 -55 -88 -79 -19 -24 -37 -38 -39 -31 -2
6 11 27 29 46 19 19 34 43 34 52 0 9 7 18 15 18 8 1 20 2 26 3 19 2 67 48 56
55 -5 3 -12 18 -15 33 -3 16 -15 34 -26 40 -17 11 -19 10 -14 -4 5 -12 3 -14
-8 -7 -8 5 -16 9 -19 9 -8 0 -105 82 -149 126 -20 20 -54 42 -76 49 -37 12
-64 30 -150 102 -43 36 -133 78 -169 78 l-28 0 22 18 c22 18 22 18 -29 28 -32
7 -48 7 -44 0 4 -5 -1 -7 -11 -3 -10 4 -15 3 -11 -4 4 -5 16 -7 28 -4 17 5 19
4 7 -4 -8 -6 -23 -8 -32 -5 -10 3 -18 1 -18 -4 0 -14 47 -32 84 -32 49 0 110
-24 185 -74 71 -48 132 -105 97 -92 -16 5 -17 4 -7 -8 7 -8 24 -14 39 -14 15
0 35 0 44 -1 23 -1 195 -158 201 -182 5 -19 -4 -25 -17 -12 -11 11 -36 12 -36
2 0 -6 -6 -7 -12 -3 -7 4 -4 -2 6 -14 19 -22 32 -30 22 -13 -11 17 22 20 36 4
11 -14 11 -16 -3 -11 -13 5 -16 0 -13 -23 3 -22 -2 -31 -19 -39 -21 -11 -21
-10 -3 4 11 9 17 18 14 22 -10 9 -69 -26 -63 -37 4 -5 3 -9 -2 -8 -20 3 -34
-2 -28 -11 12 -20 -12 -10 -35 15 -12 13 -27 22 -32 19 -4 -3 -31 15 -59 40
-28 25 -55 46 -61 46 -5 0 -30 20 -56 45 -33 30 -73 54 -128 75 -82 32 -84 33
-127 63 -40 29 -176 76 -236 84 -39 4 -61 13 -77 30 -12 12 -36 26 -55 29 -32
6 -33 6 -14 -9 20 -16 20 -16 -2 -14 -29 2 -29 5 2 58 32 56 31 66 -5 87 -31
18 -42 39 -14 28 15 -6 15 -4 -1 20 -22 35 -14 40 37 22 24 -8 66 -16 93 -17
58 -2 172 -34 200 -55 30 -23 42 -19 13 3 -40 32 -128 61 -203 67 -84 7 -175
31 -175 46 0 7 -18 9 -48 6 -53 -5 -98 -38 -88 -64 7 -20 53 -36 99 -36 28 1
46 -7 69 -26 l30 -28 -37 -68 c-36 -64 -37 -71 -33 -137 4 -54 10 -75 28 -94
16 -18 21 -31 16 -49 -6 -26 -13 -30 -133 -81 -52 -23 -161 -38 -217 -31 -28
4 -105 8 -171 10 -89 2 -128 7 -152 19 -18 9 -46 17 -63 17 -52 0 -120 46
-120 82 0 10 -5 18 -11 18 -5 0 -7 5 -3 11 5 8 9 8 14 -1 10 -15 14 -7 33 60
17 57 15 122 -3 128 -6 2 -8 8 -5 13 7 10 -11 46 -32 67 -15 15 -17 38 -4 46
5 3 11 -3 14 -14 3 -11 12 -20 20 -20 30 0 27 19 -7 39 -39 25 -42 25 -44 9
-1 -7 -3 -26 -6 -42 -3 -20 1 -34 12 -42 26 -19 20 -38 -13 -45 -28 -6 -27 -6
10 -8 28 -1 36 -4 26 -10 -8 -5 -20 -7 -28 -4 -7 3 -30 2 -51 -2 -20 -4 -31
-10 -24 -12 6 -3 9 -10 5 -16 -5 -9 -3 -9 8 0 21 17 113 3 117 -18 2 -13 -10
-17 -71 -21 -56 -4 -90 -12 -139 -36 -35 -18 -76 -32 -89 -32 -14 0 -57 -16
-98 -35 -40 -19 -78 -35 -85 -35 -23 0 -150 -73 -177 -101 -14 -15 -46 -37
-72 -49 -26 -12 -59 -38 -74 -56 -16 -19 -42 -52 -60 -72 -37 -44 -53 -81 -53
-120 l0 -27 20 25 c11 14 19 30 19 35 -1 6 -1 20 0 32 l1 21 51 -21 51 -22 -7
-45 c-9 -57 -24 -85 -84 -158 -31 -37 -64 -65 -88 -75 -21 -8 -47 -24 -57 -36
-32 -35 -77 -58 -139 -71 -52 -10 -61 -10 -78 6 -10 9 -19 22 -19 29 0 6 -11
22 -25 35 -14 13 -22 27 -18 31 10 10 55 15 68 8 6 -3 21 5 34 18 21 20 22 23
7 29 -26 10 -103 -24 -147 -65 -122 -110 -216 -214 -243 -268 -14 -28 -30 -54
-36 -58 -6 -4 -24 -35 -39 -70 -16 -35 -41 -79 -54 -97 -14 -18 -29 -46 -33
-63 -4 -16 -21 -64 -37 -105 -27 -66 -30 -88 -31 -182 -1 -93 2 -110 20 -135
12 -15 32 -29 45 -30 24 -3 24 -3 2 7 -12 5 -29 23 -38 39 -15 30 -15 31 5 31
11 0 20 5 20 11 0 6 9 9 19 6 15 -4 18 0 16 20 -3 28 15 40 73 49 38 6 41 4
56 -25 12 -22 16 -54 15 -108 -1 -43 1 -108 6 -145 6 -51 4 -82 -8 -125 -9
-32 -15 -72 -13 -90 6 -47 -31 -161 -61 -189 -30 -28 -50 -30 -100 -9 -19 8
-46 15 -59 15 -31 0 -31 22 0 53 13 13 31 37 40 53 10 16 14 20 10 9 -23 -67
-11 -87 13 -22 l11 32 1 -48 c1 -51 14 -87 33 -87 7 0 6 5 -2 15 -8 10 -12 41
-11 85 1 59 -1 72 -20 91 -18 18 -28 20 -63 15 -22 -4 -48 -7 -56 -8 -8 0 -19
-4 -25 -9 -5 -4 -32 -7 -58 -7 -26 1 -44 4 -39 7 5 3 9 13 10 21 0 8 4 33 7
55 3 22 6 57 5 77 -1 28 6 45 28 68 l30 30 0 -26 c0 -19 -3 -23 -10 -13 -7 11
-8 9 -4 -4 3 -10 6 -21 6 -23 0 -3 5 -2 10 1 13 8 13 -69 -1 -117 -5 -21 -14
-38 -19 -38 -5 0 -7 -7 -3 -16 5 -14 8 -13 18 6 8 15 14 19 17 10 2 -7 4 4 4
26 0 94 7 180 17 192 15 19 29 14 17 -8 -9 -16 -8 -18 5 -14 8 4 15 17 15 30
0 13 5 24 11 24 6 0 9 9 6 20 -3 11 -1 20 4 20 5 0 9 -6 9 -13 0 -8 15 -14 37
-15 20 -2 40 -5 44 -7 4 -3 9 2 13 10 6 17 26 20 26 4 0 -11 24 -39 34 -39 3
0 6 14 6 31 0 28 -2 30 -17 18 -10 -7 -5 1 11 19 17 18 26 32 20 32 -5 0 -1 7
9 14 16 12 17 21 10 58 -7 35 -13 44 -33 46 -34 5 -50 -22 -44 -72 5 -33 1
-47 -16 -68 -26 -34 -47 -35 -96 -6 -52 31 -198 38 -254 13 -21 -10 -45 -15
-53 -12 -25 9 -47 97 -48 187 -2 109 21 221 61 300 17 33 36 87 41 117 16 84
99 242 160 305 29 29 60 71 69 93 10 22 30 51 45 65 15 14 33 37 41 52 30 58
209 182 274 189 51 5 57 0 63 -50 7 -59 46 -125 86 -146 17 -8 48 -15 69 -15
39 0 72 -23 72 -49 0 -7 -11 -26 -25 -43 -25 -30 -33 -58 -15 -58 5 0 7 6 4
14 -3 7 6 27 20 44 27 31 34 66 16 77 -8 5 -8 11 0 20 8 9 6 14 -6 19 -22 8
-26 8 -19 -4 3 -5 -1 -10 -9 -10 -9 0 -13 6 -10 14 3 9 -3 17 -15 21 -12 3
-21 13 -21 21 0 15 -16 20 -22 6 -1 -5 -14 -5 -28 -2 -24 6 -24 7 7 14 18 4
33 12 33 17 0 12 0 12 -50 -6 -50 -18 -50 -18 -50 -5 0 5 16 12 35 16 76 14
216 131 251 209 11 25 13 26 14 9 0 -12 -9 -33 -20 -46 -21 -28 -16 -45 8 -25
13 10 14 9 7 -3 -25 -43 -83 -104 -126 -132 -27 -17 -49 -33 -49 -35 0 -10 61
30 104 68 37 32 58 44 82 44 25 0 31 -3 29 -17 -2 -10 0 -18 4 -18 5 0 7 -15
6 -34 -4 -35 5 -40 34 -22 11 7 13 5 7 -9 -5 -13 -3 -15 6 -8 7 6 21 9 30 8 9
-2 19 4 22 11 5 12 8 13 20 2 19 -18 -1 -55 -51 -98 -33 -28 -34 -30 -8 -15
45 25 82 80 90 130 6 42 33 74 49 58 3 -3 6 -1 6 5 0 21 -26 13 -56 -19 -16
-17 -37 -35 -46 -40 -23 -12 -48 14 -48 52 0 72 -79 172 -167 211 -39 17 -43
22 -37 46 14 55 25 74 65 110 23 20 52 55 65 78 24 41 93 104 114 104 6 0 33
22 60 49 65 65 222 140 292 141 15 0 66 20 112 45 47 25 96 45 108 45 13 0 43
9 67 20 24 11 68 23 97 26 30 4 54 10 54 14 0 10 -28 9 -84 -2 -38 -8 -50 -7
-57 3 -7 12 -9 12 -9 0 0 -17 -30 -40 -52 -41 -10 0 -18 5 -18 12 0 6 -9 3
-20 -7 -24 -22 -27 -4 -4 20 22 22 9 32 -15 11 -11 -10 -17 -25 -14 -37 7 -25
-13 -25 -27 1 -6 11 -15 20 -20 20 -13 0 -13 -47 0 -53 6 -3 5 -4 -2 -3 -7 1
-16 16 -19 32 -6 28 -7 28 -9 4 -2 -18 -4 -20 -7 -7 -6 23 -23 12 -24 -16 -1
-20 -2 -20 -9 3 l-8 25 -1 -25 c-2 -40 -15 -54 -39 -41 -26 14 -62 14 -62 1 0
-6 -9 -6 -22 -2 -27 10 -58 5 -58 -9 0 -6 -4 -8 -9 -4 -5 3 -12 1 -15 -4 -4
-5 -2 -12 4 -16 5 -3 10 -14 10 -23 0 -15 -2 -15 -10 -2 -8 12 -10 11 -10 -7
0 -13 -4 -23 -9 -23 -5 0 -8 8 -6 18 1 9 0 11 -2 4 -3 -7 -18 -19 -34 -27 -16
-9 -28 -20 -26 -26 1 -7 -4 -14 -11 -16 -7 -3 -11 1 -10 8 2 8 -7 15 -19 17
-19 3 -23 -1 -23 -21 0 -14 -7 -28 -16 -31 -24 -9 -27 -8 -21 13 6 26 -18 17
-58 -22 -16 -16 -24 -26 -17 -23 21 12 13 -18 -8 -32 -17 -10 -20 -10 -21 5
-1 12 -3 10 -8 -6 -4 -14 -12 -26 -18 -28 -9 -3 -10 4 -3 27 5 19 5 28 -1 25
-5 -4 -9 -12 -9 -19 0 -8 -12 -21 -26 -31 -22 -14 -28 -15 -35 -4 -6 10 -9 10
-9 2 0 -7 -9 -21 -20 -31 -12 -11 -22 -35 -24 -58 -2 -21 -7 -50 -12 -64 l-8
-25 -7 25 c-6 22 -7 23 -8 4 -1 -24 -27 -40 -35 -21 -2 7 -5 -3 -5 -21 -1 -22
-5 -32 -14 -29 -6 2 -10 13 -9 23 3 16 1 17 -10 6 -17 -17 -17 -34 0 -47 11
-9 9 -11 -6 -11 -15 0 -19 7 -17 33 1 18 -2 33 -7 33 -4 0 -8 -3 -9 -7 -6 -47
-5 -70 5 -82 9 -12 8 -13 -4 -6 -13 8 -13 6 -1 -8 14 -18 9 -47 -8 -47 -6 0
-8 7 -5 15 4 8 1 15 -6 15 -7 0 -10 8 -7 19 3 12 0 18 -7 15 -8 -3 -11 9 -9
38 l2 43 -8 -40 c-6 -27 -5 -45 3 -54 6 -8 6 -12 1 -9 -6 4 -19 -1 -30 -9 -14
-11 -15 -14 -3 -10 17 6 20 -16 3 -30 -4 -4 -5 -2 0 6 5 9 3 12 -6 9 -8 -3
-16 -15 -18 -29 -3 -22 -4 -23 -12 -4 -7 17 -8 17 -8 -8 -1 -15 -4 -26 -8 -25
-5 1 -18 -3 -30 -10 -13 -7 -23 -9 -23 -4 0 5 11 14 25 20 14 6 25 16 25 22 0
6 -8 5 -20 -2 -17 -11 -22 -10 -30 2 -8 12 -10 10 -10 -8 0 -12 -7 -25 -15
-28 -8 -4 -12 -10 -9 -15 3 -5 2 -9 -3 -8 -4 1 -15 1 -23 -1 -13 -1 -12 -2 1
-8 12 -5 14 -13 8 -27 -6 -17 -8 -17 -8 -2 -1 11 -9 17 -27 17 -16 0 -23 -4
-18 -12 5 -8 0 -9 -14 -6 -12 4 -22 2 -22 -3 0 -5 -8 -9 -17 -10 -15 0 -15 -2
2 -9 18 -8 18 -9 -5 -9 -14 -1 -32 -6 -40 -11 -13 -9 -13 -11 0 -20 12 -8 12
-10 -5 -10 -12 0 -16 -3 -9 -8 9 -5 8 -11 -2 -20 -12 -11 -14 -8 -14 15 0 22
-2 25 -10 13 -5 -8 -10 -29 -10 -46 0 -38 -9 -48 -28 -31 -13 10 -15 9 -9 -6
7 -19 -12 -47 -32 -47 -6 0 -11 -4 -11 -10 0 -5 -12 -21 -27 -35 -27 -24 -27
-25 -5 -25 12 0 22 -4 22 -9 0 -5 -8 -7 -19 -4 -10 3 -22 0 -25 -6 -4 -6 -12
-11 -17 -11 -6 0 -7 5 -3 12 4 7 3 8 -4 4 -7 -4 -12 -14 -12 -22 0 -8 -4 -12
-10 -9 -6 4 -10 -11 -10 -39 0 -25 -5 -48 -10 -51 -6 -4 -8 -10 -6 -14 3 -4
-6 -18 -20 -32 -13 -13 -33 -33 -45 -44 -11 -11 -15 -21 -9 -23 6 -2 3 -10 -7
-17 -10 -7 -14 -17 -10 -21 4 -5 12 -2 17 6 7 11 9 10 7 -7 0 -12 -5 -19 -9
-17 -4 3 -19 -5 -33 -18 -24 -22 -24 -24 -5 -25 13 -1 18 2 14 9 -4 7 -2 8 5
4 16 -10 -6 -38 -23 -30 -6 3 -1 -3 12 -13 l23 -19 -23 0 c-13 1 -23 -3 -23
-9 0 -5 6 -9 12 -9 7 1 13 -8 12 -20 0 -11 -3 -15 -6 -8 -2 6 -9 10 -14 6 -5
-3 -9 0 -9 7 0 8 -6 7 -18 -4 -20 -18 -28 -61 -9 -51 8 5 8 3 0 -7 -7 -7 -13
-21 -13 -31 0 -11 -7 -18 -19 -18 -11 0 -22 -4 -25 -9 -3 -4 5 -6 18 -4 15 3
23 0 23 -10 0 -9 -6 -13 -14 -10 -8 3 -11 0 -8 -9 3 -8 -5 -18 -24 -24 -25
-10 -29 -16 -29 -53 0 -22 3 -41 9 -41 5 0 9 9 9 20 0 17 3 19 19 8 11 -7 17
-16 14 -21 -3 -5 -9 -3 -14 4 -7 11 -9 10 -9 -5 0 -14 -5 -17 -25 -12 -19 5
-25 2 -25 -9 0 -9 4 -13 10 -10 5 3 10 2 10 -4 0 -6 8 -8 18 -5 13 5 14 4 3
-4 -7 -5 -18 -16 -23 -23 -7 -11 -8 -9 -4 5 5 13 2 17 -8 13 -10 -4 -16 2 -19
16 -3 16 -5 13 -6 -10 0 -17 -6 -33 -13 -35 -9 -3 -9 -6 0 -12 7 -4 12 -2 12
3 0 6 5 11 10 11 6 0 10 -9 10 -20 0 -13 -5 -18 -15 -14 -8 4 -15 1 -15 -6 0
-6 5 -8 10 -5 6 3 10 1 10 -6 0 -8 4 -8 15 1 10 9 15 9 15 1 0 -6 -5 -11 -11
-11 -6 0 -8 -9 -4 -20 5 -15 3 -19 -10 -14 -9 4 -14 12 -11 20 3 8 -2 12 -14
11 -23 -1 -21 -14 5 -42 13 -15 22 -18 27 -11 6 8 8 7 8 -1 0 -6 -5 -15 -10
-18 -15 -9 -12 -27 3 -19 6 4 9 4 5 0 -3 -4 2 -16 13 -27 12 -12 17 -25 12
-32 -5 -8 -9 -5 -11 11 -2 12 -8 20 -13 17 -5 -4 -9 -2 -9 4 0 6 -7 7 -17 4
-12 -5 -14 -3 -8 8 8 12 6 12 -8 0 -15 -12 -15 -16 9 -56 17 -30 21 -45 14
-50 -7 -4 -10 -16 -7 -26 3 -11 1 -16 -5 -13 -5 3 -7 17 -4 29 3 13 2 27 -4
30 -5 3 -10 -1 -10 -9 0 -8 -4 -17 -9 -20 -5 -3 -8 2 -7 12 0 9 7 21 14 25 6
4 12 13 12 19 0 7 -5 7 -14 -1 -12 -10 -14 -8 -12 13 2 15 -1 26 -5 26 -5 0
-10 -10 -11 -22 0 -13 -2 -27 -3 -33 -2 -5 -3 -14 -4 -20 -1 -5 -6 -3 -11 5
-10 16 -10 18 -15 -50 -1 -14 -5 -33 -10 -43 -4 -9 -4 -28 -1 -41 3 -14 2 -27
-3 -30 -8 -5 -6 -65 3 -73 2 -3 15 0 28 7 22 11 22 10 4 -4 -11 -9 -22 -16
-25 -16 -3 0 -15 -13 -26 -28 -15 -21 -15 -24 -2 -13 21 17 23 0 4 -32 -17
-27 -16 -36 5 -67 14 -19 20 -22 30 -12 10 10 10 15 -2 22 -12 8 -13 12 -1 19
10 7 11 13 1 32 -9 21 -8 20 10 -4 20 -25 40 -28 40 -6 0 6 -4 7 -10 4 -19
-12 -10 4 25 40 32 34 55 39 55 12 0 -7 -4 -6 -10 3 -9 13 -11 13 -19 0 -11
-16 -4 -33 9 -25 5 3 12 0 15 -6 10 -15 -18 -41 -46 -43 -12 0 -24 -7 -27 -14
-2 -8 2 -10 14 -5 16 6 17 5 4 -9 -8 -9 -17 -12 -20 -7 -3 4 -20 -6 -38 -23
-18 -16 -36 -27 -40 -24 -3 4 0 11 7 15 9 6 10 11 2 15 -16 10 -25 -22 -11
-39 7 -8 15 -13 19 -11 4 3 7 -4 7 -14 0 -10 -6 -16 -13 -13 -7 3 -13 10 -13
16 0 6 -3 8 -6 5 -3 -4 0 -16 6 -28 8 -15 8 -20 1 -16 -6 4 -11 3 -11 -3 0 -5
5 -13 10 -16 6 -4 8 -11 4 -16 -3 -5 -10 -6 -16 -3 -7 4 -8 2 -4 -5 4 -6 12
-9 17 -6 5 4 9 1 9 -5 0 -6 -7 -13 -15 -16 -8 -4 -15 -11 -15 -16 0 -6 6 -8
13 -5 8 3 20 1 28 -5 11 -8 10 -9 -4 -4 -11 3 -22 -2 -29 -14 -7 -11 -19 -20
-27 -20 -21 0 -6 -164 39 -415 56 -318 187 -660 363 -945 127 -206 216 -321
380 -489 250 -254 443 -403 752 -577 269 -151 466 -224 780 -288 541 -110
1157 -28 1681 224 330 158 545 309 789 554 187 188 267 284 379 460 345 539
495 1183 427 1831 -33 313 -78 513 -167 742 -254 659 -708 1171 -1325 1496
-291 154 -556 241 -904 297 -167 27 -515 35 -695 16z m767 -471 c5 -4 2 -5 -6
0 -10 6 -12 4 -7 -4 6 -9 11 -9 22 0 9 7 27 9 47 5 17 -4 50 -9 72 -12 67 -10
187 -55 239 -91 27 -18 60 -36 75 -40 60 -15 149 -63 186 -102 21 -22 44 -41
51 -41 6 0 34 -20 62 -45 50 -45 70 -56 56 -32 -4 7 -3 9 2 4 5 -5 9 -12 9
-15 0 -4 9 -19 19 -34 10 -15 15 -32 11 -38 -4 -6 -1 -9 7 -8 7 2 12 -3 11 -9
-2 -7 0 -13 5 -12 4 1 17 -2 30 -6 17 -6 21 -12 16 -24 -4 -9 -10 -38 -13 -66
-7 -62 -28 -69 -77 -26 -36 32 -74 40 -92 19 -11 -15 2 -58 18 -58 5 0 10 -9
10 -20 0 -11 6 -20 14 -20 8 0 45 -29 83 -65 37 -36 86 -74 108 -84 22 -10 49
-28 59 -40 11 -11 25 -21 33 -21 8 0 28 -13 45 -30 29 -29 29 -30 6 -30 -13 0
-36 7 -52 15 -15 8 -34 15 -42 15 -7 0 -29 16 -48 35 -20 19 -42 35 -51 35
-14 0 -36 18 -116 95 -31 30 -67 90 -80 136 -13 41 -12 42 21 69 18 15 29 29
24 32 -5 3 -3 3 3 2 7 -2 17 5 23 14 8 15 11 15 19 2 5 -8 8 -17 6 -21 -3 -3
4 -25 15 -48 22 -43 50 -55 50 -21 0 43 -19 67 -163 205 -48 46 -107 79 -118
68 -7 -7 -1 -16 15 -27 30 -19 32 -29 10 -50 -21 -21 -28 -20 -61 9 l-28 25
33 28 33 27 -33 30 c-38 35 -105 69 -164 84 -22 6 -61 27 -85 46 -47 36 -92
50 -209 65 -106 14 -177 34 -173 48 3 6 13 12 24 12 21 0 26 16 7 24 -7 2 -3
4 9 2 12 -1 26 -6 30 -11z m-907 -209 c0 -8 -17 -15 -49 -19 -138 -16 -462
-155 -628 -268 -41 -29 -73 -37 -73 -20 0 5 43 37 96 71 169 110 507 246 617
249 25 1 37 -3 37 -13z m1035 -21 c78 -20 187 -61 250 -94 28 -14 57 -29 66
-32 24 -10 20 22 -5 43 -17 13 -19 20 -10 35 6 10 20 19 31 21 24 4 56 -25 49
-44 -3 -7 -1 -16 4 -19 11 -7 14 -55 4 -55 -3 0 -14 5 -25 10 -10 6 -19 7 -19
3 0 -4 39 -30 87 -58 92 -54 163 -104 163 -117 0 -14 -27 -9 -41 8 -13 15
-207 133 -287 173 -74 37 -261 101 -332 112 -75 13 -96 22 -86 37 6 10 49 4
151 -23z m-982 -45 c23 -11 52 -20 63 -20 12 0 43 -10 70 -22 40 -17 71 -22
174 -24 69 -1 136 -5 150 -8 37 -10 192 10 236 30 130 59 143 61 224 48 129
-20 231 -54 340 -111 168 -88 262 -166 267 -222 1 -14 11 -37 23 -51 11 -14
29 -41 39 -61 11 -20 35 -43 53 -52 18 -9 44 -30 57 -47 12 -18 38 -38 57 -46
18 -8 40 -25 49 -37 17 -27 151 -97 184 -97 24 0 88 -38 112 -66 24 -29 156
-254 178 -304 51 -116 98 -330 72 -330 -21 0 -34 -63 -28 -142 4 -63 2 -86
-10 -105 -12 -19 -14 -38 -8 -101 5 -42 7 -92 6 -110 -2 -18 2 -38 7 -45 5 -7
13 -32 17 -57 4 -25 10 -49 14 -55 4 -5 14 -26 21 -45 7 -19 26 -51 41 -72 77
-99 54 -422 -46 -650 -41 -95 -46 -100 -108 -136 -25 -15 -80 -57 -121 -94
-61 -55 -78 -78 -92 -120 -22 -67 -20 -104 6 -140 l21 -29 -42 -55 c-23 -31
-72 -82 -108 -115 -53 -49 -66 -57 -73 -44 -14 23 -85 19 -143 -9 -27 -13 -70
-45 -95 -69 -143 -143 -182 -185 -198 -213 -27 -49 -84 -126 -116 -157 -37
-36 -189 -109 -285 -138 -73 -22 -75 -22 -85 -3 -20 35 -74 84 -92 84 -15 -1
-13 -4 8 -15 42 -23 44 -49 8 -120 -17 -34 -34 -81 -37 -104 -3 -22 -9 -41
-13 -41 -10 0 -24 31 -21 45 1 6 -3 5 -10 -2 -6 -6 -18 -9 -27 -6 -9 4 -13 2
-9 -4 5 -7 0 -9 -13 -6 -24 6 -26 19 -4 27 10 4 13 2 8 -6 -4 -7 -3 -8 5 -4 6
4 9 11 6 16 -3 5 5 11 17 13 13 2 1 4 -25 3 -62 -1 -73 -14 -42 -51 23 -30 24
-30 122 -29 86 1 108 5 181 33 142 56 240 148 339 316 22 39 51 79 63 90 12
11 30 36 40 55 10 19 35 51 55 70 21 19 50 48 64 63 120 128 184 170 249 165
37 -3 37 -3 38 -49 1 -32 12 -66 32 -104 37 -67 26 -69 -21 -2 l-35 49 -20
-29 c-30 -43 -31 -65 -2 -80 109 -56 338 102 386 267 9 30 20 62 25 70 24 42
41 90 46 135 3 28 12 62 19 77 20 39 18 105 -3 117 -16 9 -16 10 3 11 23 0 34
-17 34 -55 0 -12 9 -53 21 -90 27 -89 97 -165 152 -165 46 0 56 -17 58 -106 2
-71 -16 -124 -62 -183 -11 -13 -19 -36 -19 -50 0 -62 -87 -181 -159 -217 -20
-10 -54 -35 -76 -55 -64 -58 -168 -79 -232 -45 -32 16 -33 19 -33 75 0 81 -36
130 -128 174 -91 44 -98 65 -48 147 41 66 43 93 7 98 -16 3 -21 0 -16 -9 5 -8
4 -10 -3 -5 -7 4 -12 2 -12 -4 0 -7 -7 -9 -16 -6 -8 3 -12 2 -9 -4 3 -5 -8
-16 -26 -25 -20 -11 -28 -12 -24 -4 5 8 4 10 -3 5 -6 -4 -9 -13 -5 -21 3 -9
-11 -33 -36 -60 -44 -48 -56 -73 -17 -36 19 18 26 20 32 9 4 -7 14 -24 22 -38
l14 -25 -20 25 c-11 14 -24 21 -28 17 -4 -4 -1 -7 6 -7 7 0 11 -3 7 -6 -3 -4
1 -21 10 -38 l15 -31 -21 23 c-27 27 -35 28 -21 2 10 -19 20 -23 38 -17 4 1 6
5 5 9 -2 4 9 16 23 27 15 12 23 26 19 33 -4 7 1 4 9 -7 9 -11 14 -25 12 -32
-3 -8 1 -10 12 -6 10 3 2 -10 -18 -32 l-35 -39 41 32 c42 32 60 40 50 23 -4
-5 -2 -11 4 -13 6 -2 0 -9 -12 -17 -21 -13 -22 -13 -9 2 7 10 9 17 4 17 -15 0
-74 -66 -66 -74 4 -4 1 -12 -7 -17 -13 -9 -12 -10 2 -6 30 10 39 -51 12 -74
-18 -14 -57 -99 -50 -106 2 -2 10 10 17 26 8 17 17 31 21 31 5 0 8 6 8 13 0 6
7 21 15 31 13 17 17 17 32 5 11 -9 14 -10 9 -1 -4 7 -2 12 7 12 8 0 22 10 33
23 l19 22 -22 -19 c-13 -11 -23 -14 -23 -8 0 13 35 34 42 26 3 -3 21 4 40 16
20 11 43 18 52 14 24 -9 20 -19 -16 -32 -37 -13 -115 -81 -145 -127 -12 -16
-43 -74 -71 -128 -49 -96 -145 -234 -187 -269 -11 -10 -43 -31 -70 -47 -28
-17 -69 -47 -92 -68 -33 -31 -39 -42 -32 -56 8 -13 7 -15 -6 -11 -8 3 -12 10
-9 15 7 13 -3 11 -34 -5 -15 -7 -43 -17 -62 -20 -47 -9 -137 -36 -178 -53 -53
-23 -91 -25 -192 -13 -52 6 -101 12 -108 12 -6 1 -10 3 -7 6 2 3 -7 18 -20 34
-29 35 -30 43 -9 94 22 51 14 170 -15 237 -12 27 -21 57 -21 68 0 22 54 59 87
59 38 0 101 30 118 56 20 31 15 39 -26 42 -18 2 -36 7 -39 12 -6 10 -70 7 -89
-4 -6 -4 -11 -15 -11 -24 0 -15 2 -15 10 -2 9 13 10 13 10 0 0 -10 3 -11 8 -4
11 17 41 13 34 -4 -4 -11 -1 -13 8 -7 9 5 11 4 6 -4 -6 -9 -11 -9 -24 1 -13
11 -15 10 -9 -5 4 -12 1 -20 -10 -24 -9 -4 -19 -1 -21 5 -5 15 -32 16 -32 0 0
-6 3 -8 7 -5 3 4 12 2 19 -4 11 -9 9 -15 -10 -30 -13 -11 -28 -19 -33 -19 -9
0 -13 -13 -14 -52 0 -9 9 -36 20 -61 31 -67 29 -73 -26 -70 l-48 3 53 -16 c54
-17 74 -41 25 -30 -16 3 -75 11 -133 17 -123 13 -376 -3 -421 -26 -25 -14 -27
-13 -22 5 3 11 16 23 29 26 13 3 24 10 24 15 0 12 -17 11 -25 -1 -8 -13 -25
-13 -25 0 0 6 14 13 30 17 17 3 30 9 30 13 0 6 73 15 193 23 15 1 27 6 27 11
0 4 -17 5 -37 2 -21 -4 -80 -9 -131 -12 l-93 -6 22 45 c24 50 21 85 -12 118
-11 11 -17 24 -14 28 3 5 2 16 -1 25 -5 12 -10 14 -19 6 -9 -8 -14 -6 -19 6
-4 12 -2 15 9 10 8 -3 15 0 15 7 0 8 3 8 9 -2 6 -10 10 -10 16 -1 4 6 14 9 22
6 8 -3 20 -3 26 1 19 12 -44 20 -90 11 -45 -8 -77 -2 -67 13 3 5 1 9 -4 9 -6
0 -13 -7 -16 -16 -3 -9 -13 -14 -21 -11 -21 9 -58 -25 -50 -45 8 -21 30 -29
99 -33 60 -3 112 -26 120 -53 4 -11 -7 -48 -26 -88 -46 -97 -50 -175 -13 -249
42 -87 30 -100 -121 -129 -124 -24 -192 -11 -343 66 -41 21 -82 38 -93 38 -36
0 -121 52 -193 118 -40 37 -91 79 -114 94 -52 35 -95 95 -116 161 -25 81 -47
128 -79 176 -35 53 -125 141 -143 141 -7 0 -13 5 -13 10 0 14 7 13 35 -6 14
-9 34 -14 45 -11 11 3 18 1 14 -4 -4 -8 16 -13 38 -10 12 1 89 -92 110 -133
16 -31 68 -180 68 -194 0 -2 -7 -2 -15 2 -12 4 -13 2 -2 -15 8 -14 13 -16 15
-6 2 9 16 0 41 -25 21 -21 47 -38 57 -38 13 0 9 5 -13 17 -40 22 -73 65 -79
101 -2 15 -6 34 -7 42 -2 8 -17 42 -34 75 -17 33 -39 77 -50 98 -10 21 -22 35
-25 32 -8 -8 -28 20 -33 46 -3 13 -10 26 -16 28 -8 2 -7 6 2 12 11 7 11 11 1
21 -10 10 -15 10 -22 -2 -5 -8 -10 -10 -10 -4 0 16 60 56 76 50 12 -5 12 -2 2
17 -7 12 -13 35 -14 51 -1 22 0 26 7 14 10 -19 41 -17 47 2 3 7 0 10 -7 6 -17
-11 -13 0 6 15 14 12 16 12 9 0 -6 -9 -5 -12 5 -9 8 3 13 11 11 19 -2 7 16 -3
40 -23 57 -47 141 -164 188 -263 22 -48 53 -94 76 -115 l38 -35 -38 43 c-21
24 -50 72 -66 107 -37 82 -131 218 -187 272 -25 23 -42 46 -39 52 7 10 -18 34
-27 25 -3 -3 -4 6 -3 20 3 25 -8 41 -29 41 -5 0 -10 7 -10 15 0 15 -52 38 -87
39 -9 1 -22 -7 -27 -16 -9 -16 -10 -16 -11 3 -1 63 144 28 188 -46 10 -15 36
-43 58 -62 82 -69 147 -154 214 -281 22 -43 45 -75 50 -72 5 3 7 -1 4 -9 -3
-9 10 -29 36 -53 23 -21 62 -59 88 -86 40 -41 105 -83 233 -149 44 -23 150
-36 209 -26 43 7 80 36 80 62 0 6 -9 0 -19 -13 -12 -16 -21 -20 -25 -12 -4 6
-12 11 -17 11 -6 0 -7 -5 -3 -12 5 -7 3 -8 -5 -4 -7 5 -10 14 -8 20 4 9 -8 13
-34 14 -25 1 -38 -2 -34 -8 3 -6 13 -10 21 -10 19 0 18 -26 -2 -34 -37 -14
-54 -7 -54 25 0 17 -10 52 -21 79 -13 30 -19 59 -15 74 12 47 134 96 241 96
34 0 83 6 108 14 52 15 310 13 407 -4 81 -15 161 -19 154 -9 -3 5 -27 9 -54 9
-27 0 -73 6 -102 14 -63 16 -368 14 -438 -2 -25 -6 -69 -11 -97 -12 -106 0
-211 -37 -252 -87 l-28 -34 -49 12 c-27 7 -80 25 -118 40 -80 32 -102 32 -29
-1 71 -31 163 -60 193 -60 30 0 69 -25 57 -36 -10 -10 -130 20 -227 57 -83 32
-171 86 -178 109 -4 11 1 10 17 -4 11 -11 21 -16 21 -12 0 3 13 0 30 -9 48
-25 35 -12 -36 36 -44 30 -72 57 -86 84 -45 88 -134 208 -206 278 -42 40 -88
86 -101 101 -28 31 -91 66 -119 66 -31 0 -74 -39 -67 -61 10 -32 -13 -22 -67
28 -52 49 -178 201 -178 215 0 4 9 17 20 28 25 25 40 62 40 100 0 39 -35 118
-63 140 -23 20 -138 80 -198 103 -53 22 -85 86 -130 267 -47 187 -62 294 -58
405 l4 84 45 43 c55 52 70 97 70 204 0 44 7 109 17 145 15 61 15 72 1 137 -9
43 -13 86 -9 109 9 48 -1 98 -27 132 l-20 27 24 82 c51 177 173 387 308 530
56 60 92 82 131 82 41 0 89 24 148 76 30 27 74 60 97 74 53 31 114 107 135
168 9 26 21 57 25 69 11 27 99 92 195 145 106 56 344 143 430 156 79 12 83 12
128 -8z m1919 -268 c86 -58 135 -82 181 -88 28 -4 47 -12 47 -20 0 -9 -8 -10
-32 -3 -17 5 -34 6 -37 4 -2 -3 1 -5 8 -5 7 0 9 -4 6 -10 -3 -5 2 -10 12 -11
12 -1 10 -3 -7 -8 -28 -8 -88 7 -108 26 -7 7 -18 13 -23 13 -5 0 -31 16 -59
36 -50 36 -88 90 -67 97 7 2 5 12 -6 27 -29 42 -19 46 14 7 18 -21 49 -50 71
-65z m412 -17 c21 -9 45 -23 53 -31 8 -8 18 -14 22 -14 12 0 61 -49 105 -105
22 -28 54 -66 72 -85 18 -19 40 -51 51 -70 10 -19 27 -49 39 -65 12 -17 26
-45 32 -63 6 -18 25 -49 42 -70 33 -38 50 -78 76 -171 9 -30 28 -80 44 -111
83 -164 91 -436 14 -487 -24 -15 -29 -15 -90 7 -75 26 -151 23 -236 -11 -60
-23 -65 -24 -45 -1 8 9 25 39 36 65 61 142 -19 414 -201 680 -43 64 -118 159
-138 175 -29 24 -151 107 -181 123 -49 27 -87 3 -61 -38 9 -14 51 -14 70 0 19
15 27 -1 10 -20 -9 -10 -19 -33 -23 -50 -3 -18 -11 -36 -17 -40 -8 -4 -9 0 -5
11 8 20 -7 52 -34 79 -24 22 -26 82 -3 91 9 3 28 6 44 6 37 0 110 32 133 58
25 27 46 88 47 134 0 20 6 38 13 41 13 5 72 -12 131 -38z m-489 -10 c21 -22
92 -73 123 -89 18 -9 30 -21 27 -25 -6 -11 14 -27 40 -33 22 -5 23 -5 -50 -28
-45 -14 -55 -25 -55 -57 0 -13 -6 -23 -12 -23 -7 -1 0 -12 17 -25 l29 -24 -38
5 c-24 3 -52 16 -73 34 -18 17 -40 30 -47 30 -8 0 -38 23 -67 52 -30 28 -47
48 -39 43 11 -6 10 -3 -2 12 -23 25 -23 40 -1 22 15 -12 16 -12 10 3 -4 12 4
22 29 37 22 13 34 16 34 8 1 -7 6 -5 14 5 7 10 15 15 18 12 3 -2 8 7 10 21 3
14 -1 30 -8 36 -8 6 -14 16 -14 22 0 9 29 -11 55 -38z m299 -417 c11 2 16 -1
11 -7 -3 -6 -11 -9 -16 -6 -15 10 -11 -5 10 -33 63 -89 181 -321 235 -462 14
-36 25 -58 25 -50 0 8 -11 42 -24 75 -31 74 -31 77 -1 64 21 -10 24 -17 19
-45 -5 -27 0 -38 25 -63 27 -28 28 -32 14 -52 -11 -17 -16 -18 -24 -8 -11 17
1 -38 13 -63 10 -19 -1 -31 -18 -20 -5 4 -16 25 -23 47 -7 22 -19 50 -27 62
-8 12 -12 26 -9 31 7 12 -50 154 -105 257 -54 103 -132 227 -180 289 -50 63
-39 83 15 25 26 -27 48 -42 60 -41z m-3447 4 c-26 -26 -47 -53 -47 -60 0 -6
-29 -56 -65 -111 -80 -125 -97 -158 -155 -300 -25 -63 -51 -116 -58 -119 -19
-6 -14 16 23 118 74 198 194 394 305 496 53 49 50 30 -3 -24z m3699 -680 c14
-13 88 -32 123 -32 30 0 41 -13 21 -25 -6 -3 -7 -17 -4 -30 6 -23 -22 -85 -38
-85 -4 0 -8 -6 -8 -14 0 -21 -38 -8 -46 16 -3 11 -3 35 0 53 17 89 -44 128
-75 47 -19 -50 -23 -75 -9 -67 10 6 12 4 7 -8 -4 -10 -1 -30 5 -45 6 -15 11
-30 10 -34 -1 -5 3 -8 9 -8 6 0 8 9 4 20 -4 11 -2 20 4 20 6 0 11 -9 11 -20 0
-11 5 -20 10 -20 6 0 9 -6 8 -12 -2 -7 7 -14 20 -16 15 -2 22 2 22 12 0 9 -7
16 -15 16 -18 0 -20 19 -2 21 22 2 42 -3 48 -12 3 -6 16 -6 33 1 17 6 25 6 21
0 -3 -6 -1 -10 4 -10 6 0 11 6 12 13 0 6 4 3 9 -8 7 -16 9 -17 9 -3 1 9 5 19
10 22 5 4 8 -5 6 -19 -1 -14 3 -25 10 -25 15 0 16 -32 1 -42 -8 -6 -8 -8 0 -8
7 0 10 -35 10 -102 -1 -97 -2 -103 -21 -100 -75 13 -125 -10 -125 -58 0 -20
-5 -30 -15 -30 -8 0 -15 -8 -15 -17 0 -25 -17 -4 -29 37 -11 35 -11 35 -7 -12
2 -26 11 -54 20 -63 14 -15 15 -18 0 -32 -14 -14 -13 -18 7 -39 43 -46 82 14
60 93 -13 47 -14 53 -1 53 6 0 10 -7 10 -15 0 -9 9 -15 23 -15 14 0 30 -12 45
-33 26 -39 29 -67 7 -67 -9 0 -29 -7 -46 -15 -25 -13 -28 -19 -19 -35 6 -11 8
-30 6 -42 -3 -13 -7 -74 -10 -137 -3 -63 -11 -142 -17 -175 -16 -85 -68 -254
-79 -261 -15 -9 -12 17 10 100 26 98 47 228 56 345 3 52 11 103 16 113 6 12 6
23 -3 33 -8 10 -8 14 0 14 6 0 11 5 11 10 0 6 -10 8 -24 4 -18 -4 -33 3 -60
27 -53 46 -76 97 -76 167 0 32 -5 63 -12 70 -11 11 -13 71 -6 304 3 92 6 110
26 137 13 17 20 36 17 41 -8 12 7 13 21 2z m314 -222 c-19 -97 -9 -218 25
-305 7 -17 6 -18 -6 -7 -8 7 -19 27 -25 45 -6 18 -15 30 -20 27 -5 -3 -8 -7
-8 -10 1 -3 4 -18 7 -35 6 -27 5 -28 -5 -7 -6 12 -15 22 -20 22 -5 0 -6 5 -3
10 4 6 2 16 -3 23 -10 11 -15 79 -13 175 1 32 5 42 17 42 10 0 14 6 10 15 -3
8 -2 14 2 14 20 -3 30 3 35 23 11 39 16 14 7 -32z m-4683 -317 c50 -4 80 -1
113 12 69 26 89 28 105 15 8 -7 15 -21 15 -32 0 -19 -1 -19 -18 2 -39 48 -63
6 -111 -203 -23 -98 -27 -199 -10 -291 32 -186 68 -259 187 -382 78 -81 98
-96 187 -138 172 -81 202 -103 219 -157 17 -52 20 -88 8 -105 -4 -6 -25 -20
-47 -32 -22 -11 -52 -31 -68 -46 l-27 -25 -15 23 c-8 12 -16 41 -18 63 -1 23
-4 40 -6 38 -8 -9 -52 57 -47 70 3 8 0 15 -6 15 -6 0 -8 3 -5 7 4 4 22 -4 40
-17 17 -12 27 -17 20 -10 -6 7 -9 18 -7 25 5 13 -40 30 -55 20 -21 -12 -18
-47 5 -75 14 -16 33 -53 43 -82 10 -29 26 -66 35 -83 9 -16 16 -47 16 -68 0
-53 20 -91 86 -162 31 -33 70 -79 87 -103 62 -85 220 -152 256 -108 8 9 9 16
3 16 -10 0 -25 32 -27 53 0 5 -8 14 -17 21 -10 7 -14 17 -10 22 4 4 0 3 -9 -4
-9 -6 -20 -8 -24 -4 -5 4 -5 1 -1 -6 4 -7 11 -10 16 -7 5 3 11 1 15 -4 3 -6
-6 -8 -21 -5 -29 5 -78 -21 -69 -36 4 -6 2 -10 -4 -10 -20 0 -21 19 -1 33 26
18 90 102 90 118 0 28 64 -89 76 -138 11 -48 10 -53 -10 -71 -11 -10 -41 -27
-66 -36 -55 -22 -125 -78 -145 -116 -8 -16 -15 -49 -15 -74 0 -35 -5 -48 -19
-56 -33 -17 -79 -11 -134 16 -63 32 -252 220 -274 272 -8 19 -23 47 -34 62
-11 15 -25 47 -30 71 -6 24 -23 64 -40 88 -26 39 -29 51 -23 95 8 71 9 72 41
79 76 16 163 143 163 239 0 63 11 78 59 78 40 0 117 -42 125 -68 18 -56 96
-87 96 -39 0 33 -35 64 -54 48 -9 -8 -16 -8 -20 -2 -4 5 -2 12 4 16 18 11 11
27 -9 20 -21 -6 -61 13 -61 30 0 15 -45 39 -111 59 -75 23 -217 138 -276 224
-42 61 -55 74 -31 29 58 -110 275 -287 343 -279 11 1 31 -7 45 -19 l25 -21
-30 8 c-46 11 -117 6 -109 -8 3 -4 2 -13 -2 -19 -4 -8 -9 -7 -15 2 -4 7 -19
14 -32 16 -21 3 -25 -1 -30 -34 -8 -46 0 -58 9 -14 4 17 10 34 15 37 12 7 51
-35 44 -46 -8 -14 -26 -12 -22 1 1 6 -4 14 -11 16 -19 7 -12 -38 8 -55 13 -11
11 -11 -9 -2 -12 7 -31 10 -41 7 -11 -3 -21 2 -25 11 -5 14 -8 13 -23 -2 -14
-15 -14 -19 -3 -23 15 -6 36 -27 63 -64 19 -25 16 -38 -4 -22 -7 5 -35 16 -62
23 -26 7 -69 30 -95 50 -26 21 -57 41 -70 45 -33 10 -142 111 -172 158 -15 23
-36 51 -49 62 -25 23 -86 139 -95 182 -3 15 -10 48 -15 73 -4 25 -15 65 -24
90 -26 78 -39 199 -26 255 8 37 8 60 0 91 -20 70 3 224 40 271 11 14 20 31 20
37 0 6 7 21 15 33 l15 21 60 -29 c41 -21 80 -32 127 -36z m4898 9 c23 -26 52
-72 65 -102 25 -56 26 -74 29 -315 1 -77 -15 -178 -44 -275 -7 -25 -19 -69
-25 -98 -7 -29 -23 -68 -36 -87 -13 -19 -40 -69 -61 -111 -63 -131 -193 -247
-322 -289 -38 -12 -69 -32 -102 -65 -35 -36 -45 -42 -39 -24 5 13 7 24 4 24
-4 0 -2 6 4 13 10 12 12 17 12 37 0 7 6 7 20 0 14 -7 20 -7 20 0 0 5 -5 10
-11 10 -5 0 -7 5 -4 10 4 6 11 7 17 4 6 -4 8 -2 5 3 -9 14 20 31 106 67 37 16
90 49 117 73 48 43 109 133 125 183 4 13 22 44 40 69 28 40 50 91 40 91 -2 0
-13 -20 -23 -44 -11 -24 -25 -47 -31 -50 -6 -4 -26 -40 -45 -81 -60 -129 -124
-191 -256 -245 -68 -28 -95 -29 -113 -6 -5 7 -7 5 -4 -4 4 -15 -50 -56 -60
-46 -3 2 6 10 19 17 12 6 24 13 26 14 5 4 -21 55 -28 55 -11 0 -45 -29 -34
-30 5 0 15 5 22 12 9 9 12 9 12 0 0 -6 -9 -16 -19 -22 -17 -9 -21 -5 -33 27
-9 24 -23 40 -43 49 l-29 12 47 23 c26 13 47 28 47 35 0 6 15 17 33 25 35 14
148 91 167 114 7 8 17 12 22 9 5 -3 1 -15 -9 -27 -10 -12 -3 -9 15 7 38 35 51
30 21 -7 -11 -15 -18 -27 -16 -27 3 0 20 19 38 43 19 23 26 36 16 28 -9 -7
-17 -9 -17 -3 0 15 26 33 35 24 5 -4 5 -1 1 6 -4 7 -12 9 -18 6 -6 -4 -9 -1
-6 7 3 8 10 14 16 14 5 0 13 3 16 6 3 3 -1 6 -10 6 -19 0 -56 -51 -46 -63 4
-5 3 -6 -2 -2 -5 4 -15 3 -23 -3 -23 -20 -14 -1 22 47 45 58 69 104 55 104 -5
0 -10 -6 -10 -12 0 -24 -120 -173 -166 -206 -67 -49 -183 -103 -209 -96 -13 3
-35 -5 -58 -20 -21 -15 -41 -26 -45 -26 -18 0 70 64 133 98 89 47 198 128 231
173 40 53 70 117 100 214 25 80 27 104 26 215 -1 139 -26 258 -65 320 -12 19
-27 44 -34 55 -6 12 -21 20 -36 20 -25 -1 -25 0 -10 17 20 23 60 23 103 1 74
-36 190 -23 235 27 26 29 35 25 80 -28z m-4636 -437 c6 -60 25 -168 40 -239
16 -71 27 -134 24 -141 -2 -8 3 -25 12 -39 9 -14 14 -30 10 -36 -14 -23 -25 5
-70 175 -39 150 -68 432 -49 487 9 25 11 9 33 -207z m-619 -250 c4 3 6 -5 2
-17 -4 -15 -2 -19 8 -13 8 5 11 3 8 -6 -3 -8 2 -23 11 -33 9 -11 10 -16 4 -12
-7 4 -13 3 -13 -1 0 -5 6 -15 13 -22 10 -11 9 -12 -1 -6 -11 6 -11 3 -1 -16
26 -51 29 -60 29 -89 0 -16 5 -30 11 -30 6 0 9 -9 6 -19 -3 -12 3 -27 14 -37
10 -9 16 -20 14 -24 -3 -4 2 -13 11 -20 12 -11 12 -15 2 -23 -10 -6 -9 -7 4
-4 22 8 45 -18 23 -27 -10 -3 -15 -17 -14 -38 l2 -33 7 35 c4 19 8 27 9 17 0
-11 6 -15 12 -11 8 4 8 1 1 -13 -9 -15 -7 -19 9 -19 14 0 18 6 14 23 -2 13 1
23 7 23 5 0 7 -8 4 -17 -6 -17 -5 -17 8 0 17 22 22 22 22 -2 0 -11 -4 -17 -9
-14 -15 9 -27 -20 -20 -46 5 -20 3 -23 -10 -18 -9 3 -19 2 -22 -3 -6 -9 8 -14
28 -11 4 0 7 -6 7 -15 0 -11 -5 -14 -16 -10 -10 4 -14 2 -11 -6 2 -7 10 -12
16 -10 6 1 11 -2 11 -8 0 -5 6 -7 14 -4 9 4 13 -2 11 -19 -2 -13 1 -30 6 -38
6 -10 9 -10 9 -1 0 6 4 12 10 12 5 0 7 -7 4 -15 -4 -8 1 -17 10 -21 9 -3 16
-11 16 -16 0 -6 -7 -8 -14 -5 -10 4 -13 1 -9 -8 3 -8 8 -13 13 -10 4 2 7 -10
8 -28 0 -17 6 -33 11 -35 6 -2 11 -15 11 -28 l0 -25 22 21 c25 23 38 19 14 -5
-9 -9 -13 -21 -10 -26 3 -6 14 0 25 12 23 26 24 23 5 -22 -8 -21 -10 -42 -5
-54 4 -11 8 -14 8 -7 1 6 6 12 12 12 6 0 9 -6 6 -14 -3 -8 1 -20 9 -26 8 -7
14 -18 14 -24 0 -6 9 -12 20 -12 25 0 26 12 3 25 -16 9 -16 10 4 8 12 0 20 -4
17 -8 -2 -4 6 -15 18 -23 23 -16 22 -16 -9 -12 -21 2 -34 -2 -37 -11 -4 -8 -1
-11 5 -7 7 4 9 0 5 -14 -4 -11 -3 -23 2 -26 6 -3 9 2 8 12 0 10 6 17 16 17 9
0 20 3 24 7 9 10 44 -10 43 -25 0 -8 -2 -7 -6 2 -5 11 -7 11 -14 0 -7 -11 -9
-9 -9 6 0 11 -3 15 -9 10 -5 -6 -6 -28 -1 -50 6 -32 8 -34 9 -12 0 15 5 27 10
27 5 0 8 -21 7 -46 -2 -31 2 -48 11 -51 7 -3 13 -14 13 -24 0 -10 5 -19 11
-19 6 0 8 7 5 16 -3 8 -2 12 4 9 6 -3 10 -17 10 -31 0 -13 4 -24 9 -24 5 0 7
10 5 23 -5 22 -5 22 6 -1 5 -13 15 -20 21 -17 6 5 10 0 9 -11 -5 -41 -1 -47
16 -33 13 11 15 11 14 -2 -1 -7 -2 -23 -1 -34 1 -17 3 -18 11 -5 9 14 14 7 11
-13 -1 -4 7 -17 18 -28 14 -15 21 -17 26 -8 5 8 4 10 -3 5 -7 -4 -12 -1 -12
10 0 13 3 14 15 4 17 -14 20 -40 5 -40 -5 0 -10 -4 -10 -9 0 -5 11 -8 24 -5
14 2 28 0 31 -6 3 -5 0 -10 -7 -11 -7 0 -2 -5 12 -10 20 -8 22 -12 10 -19 -13
-8 -12 -10 3 -10 9 0 17 -4 17 -10 0 -5 6 -7 14 -4 8 3 17 0 22 -7 5 -8 3 -10
-6 -4 -8 5 -11 3 -8 -6 3 -8 11 -13 18 -11 8 2 11 -4 7 -18 -5 -21 7 -28 18
-9 9 14 57 -31 51 -48 -3 -7 1 -10 10 -6 10 4 14 -2 14 -21 0 -14 -3 -26 -7
-26 -4 0 -28 20 -53 44 -25 24 -67 64 -94 88 -75 67 -243 262 -326 378 -93
131 -170 259 -170 283 0 10 -4 16 -8 13 -9 -5 -101 179 -143 284 -28 73 -83
240 -102 315 -9 33 -23 87 -31 121 -9 33 -15 71 -15 85 2 23 2 23 6 1 2 -12 8
-20 13 -17z m4592 -535 c-2 -24 -5 -46 -7 -48 -2 -2 -14 3 -27 11 -12 8 -31
13 -41 12 -14 -3 -17 1 -12 18 5 19 4 19 -5 5 -6 -10 -7 -25 -1 -40 4 -13 6
-29 3 -37 -3 -10 0 -11 9 -5 12 7 12 5 1 -9 -8 -9 -11 -21 -7 -26 3 -7 0 -8
-10 -5 -12 5 -13 9 -4 20 9 11 9 14 0 14 -7 0 -10 4 -6 9 3 5 1 12 -3 15 -5 3
-14 -6 -21 -21 -11 -24 -11 -25 5 -12 16 12 17 12 12 -3 -5 -11 6 -29 33 -56
26 -27 37 -46 33 -57 -5 -13 -13 -8 -40 24 -19 22 -45 43 -57 47 -32 9 -67 45
-67 68 0 18 1 19 13 2 19 -26 43 -11 67 42 27 59 53 79 99 78 l36 -1 -3 -45z
m-262 -970 c0 -8 -76 -80 -130 -122 -47 -36 -188 -111 -230 -122 -23 -6 -23
-6 3 9 27 15 27 17 11 29 -17 13 -16 15 4 41 12 15 22 34 22 41 0 18 8 18 27
-2 9 -8 22 -13 29 -10 8 3 14 2 14 -3 0 -4 -23 -18 -51 -31 -28 -14 -46 -26
-40 -28 20 -7 194 97 255 152 53 47 86 65 86 46z m-3291 -132 c-3 -27 2 -36
21 -41 17 -4 20 -2 15 14 -4 11 -2 19 4 19 6 0 11 -8 11 -17 1 -22 25 -55 33
-46 4 3 7 -2 7 -11 0 -12 5 -16 15 -12 8 3 15 2 15 -3 0 -5 11 -12 25 -15 14
-4 25 -14 25 -24 1 -13 4 -11 15 8 14 25 14 25 9 -10 -4 -23 -3 -31 4 -22 7
11 10 11 16 -3 3 -9 10 -14 16 -10 5 3 22 -2 37 -12 15 -10 24 -12 20 -5 -5 6
-4 12 2 12 6 0 11 -11 11 -25 0 -18 4 -23 15 -19 8 4 15 1 15 -6 0 -6 5 -8 10
-5 6 3 10 -3 10 -14 0 -14 5 -19 15 -15 8 4 15 1 15 -6 0 -6 5 -8 10 -5 6 3
13 -1 16 -9 3 -9 10 -13 15 -10 5 3 16 -2 25 -10 17 -17 39 -22 29 -7 -3 5 -1
12 5 16 6 3 10 -4 10 -17 0 -17 6 -24 20 -25 11 -1 20 2 20 8 0 5 4 9 10 9 5
0 7 -6 5 -13 -3 -6 4 -18 16 -25 18 -12 23 -12 31 0 8 10 8 9 4 -4 -3 -12 0
-18 10 -18 8 0 22 -7 31 -16 9 -8 22 -13 29 -10 8 3 14 2 14 -2 0 -4 11 -12
24 -18 21 -10 23 -9 18 4 -3 10 -1 13 6 8 11 -6 17 -36 8 -36 -11 0 -143 53
-153 62 -7 6 -13 8 -13 4 0 -7 -172 80 -285 144 -38 22 -85 47 -103 57 -25 13
-31 21 -26 37 4 16 3 18 -5 7 -8 -12 -17 -10 -53 14 -101 66 -115 81 -115 126
0 30 2 37 9 25 5 -9 8 -22 7 -28z m1621 -263 c20 -24 -3 -65 -35 -65 -17 0
-24 -4 -19 -11 4 -8 0 -9 -15 -4 -16 5 -21 2 -21 -11 0 -10 2 -15 5 -12 3 3
38 -1 77 -8 50 -10 83 -11 112 -4 66 15 213 13 219 -4 4 -11 -11 -14 -81 -15
-48 0 -111 -7 -139 -15 -46 -12 -59 -12 -99 0 -26 8 -85 14 -131 14 -63 0 -84
3 -81 13 3 6 14 13 26 15 12 2 20 7 17 12 -5 8 63 36 78 32 4 -1 5 8 1 21 -11
46 56 78 86 42z m726 -227 c5 -7 2 -8 -7 -3 -11 6 -11 5 -3 -4 9 -10 17 -10
32 -2 10 6 22 7 26 4 3 -3 6 -1 6 5 0 7 5 12 10 12 6 0 10 -7 10 -15 0 -23
-125 -55 -360 -92 -217 -34 -840 -19 -840 21 0 6 18 11 45 11 25 0 45 -4 45
-8 0 -5 5 -5 11 -1 6 3 15 0 20 -7 7 -11 9 -11 9 -1 0 8 5 10 13 5 18 -11 37
-12 37 -2 0 5 9 4 20 -3 17 -11 22 -10 30 2 9 13 11 13 20 0 5 -8 10 -11 10
-6 0 5 8 2 17 -5 15 -12 16 -12 10 3 -3 10 -2 20 2 23 5 2 11 -5 14 -16 4 -13
10 -18 18 -13 24 15 59 13 59 -4 0 -13 3 -12 15 4 8 10 15 14 15 7 0 -7 13
-10 35 -8 24 2 33 0 28 -8 -4 -7 1 -6 11 2 16 14 16 15 -6 28 l-23 14 24 -7
c21 -5 22 -4 10 9 -8 8 -17 13 -21 10 -5 -2 -8 1 -8 6 0 15 16 14 32 -1 32
-31 50 -41 78 -44 22 -3 28 0 24 11 -4 8 -1 15 5 15 6 0 11 -10 11 -21 0 -20
1 -21 25 -5 14 9 25 12 25 7 0 -5 9 -9 20 -8 11 1 20 4 20 7 0 3 26 5 59 5 41
1 63 6 75 18 10 9 22 17 29 17 6 0 2 -6 -8 -14 -18 -13 -17 -14 8 -13 15 0 24
3 21 8 -3 5 2 6 10 3 11 -4 16 0 17 12 0 16 2 15 9 -3 12 -30 18 -29 15 2 -2
14 1 25 6 25 5 0 9 -10 9 -22 0 -19 2 -20 10 -8 8 12 12 13 19 2 6 -11 9 -9
13 6 3 10 15 21 27 25 14 3 19 1 14 -6 -4 -8 -2 -8 9 0 8 7 18 10 21 6 4 -3 7
-1 7 5 0 9 14 16 42 21 4 0 10 -4 14 -11z"/>
</g>
</svg>
